<?xml version="1.0" encoding="iso-8859-1"?>
<!-- Generator: Adobe Illustrator 20.1.0, SVG Export Plug-In . SVG Version: 6.00 Build 0)  -->
<svg version="1.1"
	 id="svg5376" inkscape:version="0.48.2 r9819" sodipodi:docname="A1.svg" xmlns:cc="http://creativecommons.org/ns#" xmlns:dc="http://purl.org/dc/elements/1.1/" xmlns:inkscape="http://www.inkscape.org/namespaces/inkscape" xmlns:rdf="http://www.w3.org/1999/02/22-rdf-syntax-ns#" xmlns:sodipodi="http://sodipodi.sourceforge.net/DTD/sodipodi-0.dtd" xmlns:svg="http://www.w3.org/2000/svg"
	 xmlns="http://www.w3.org/2000/svg" xmlns:xlink="http://www.w3.org/1999/xlink" x="0px" y="0px" viewBox="0 0 994.502 1164.369"
	 style="enable-background:new 0 0 994.502 1164.369;" xml:space="preserve">
<sodipodi:namedview  bordercolor="#666666" borderopacity="1.0" fit-margin-bottom="0.5" fit-margin-left="0.5" fit-margin-right="0.5" fit-margin-top="0.5" id="base" inkscape:current-layer="layer1" inkscape:cx="2358.7189" inkscape:cy="179.96525" inkscape:document-units="px" inkscape:pageopacity="0.0" inkscape:pageshadow="2" inkscape:window-height="1028" inkscape:window-maximized="1" inkscape:window-width="1920" inkscape:window-x="-8" inkscape:window-y="-8" inkscape:zoom="0.24748737" pagecolor="#ffffff" showgrid="false">
	</sodipodi:namedview>
<g id="layer1" transform="translate(-1042.801,1924.5787)" inkscape:groupmode="layer" inkscape:label="Layer 1">
	<g id="g14605">
		<g id="g14587">
			<g id="g13010" transform="matrix(23.222837,0,0,-23.222837,1072.7382,-1882.0291)">
				<path id="path13012" inkscape:connector-curvature="0" style="fill:#545454;" d="M0,0c0.171,0.148,1.001,0.579,2.301,0.317
					c0.492-0.1,1.09-0.36,1.186-0.419c0.096-0.059-0.401,0.443-0.973,0.601c-0.508,0.14-1.047,0.249-1.573,0.148
					c-0.536-0.103-1.054-0.431-1.08-0.539C-0.166,0.002-0.153-0.08,0,0"/>
			</g>
			<g id="g13014" transform="matrix(23.222837,0,0,-23.222837,1129.0699,-1901.8056)">
				<path id="path13016" inkscape:connector-curvature="0" style="fill:#545454;" d="M0,0c0.245-0.011,1.046-0.021,2.209-1.021
					c1.164-1,1.445-1.4,1.693-1.765C4.151-3.151,4.838-4.7,4.987-4.967c0.151-0.267,1.112-1.975,1.342-2.208
					c0.231-0.233,0.769-0.958,1.67-0.894C8.901-8.005,9.51-7.381,9.572-7.341C9.633-7.3,9.5-7.823,9.385-8.094
					c-0.114-0.267-0.404-0.664-0.967-0.94C7.854-9.311,7.043-9.332,6.161-8.847C4.787-8.092,4.928-7.81,4.845-7.729
					C4.762-7.65,5.841-8.427,6.399-8.398C6.45-8.396,5.79-7.827,5.628-7.61c-0.162,0.218-1.167,1.599-1.48,2.785
					C3.836-3.64,3.435-3.065,3.249-2.74C3.062-2.415,2.567-1.883,2.145-1.51C1.722-1.137,1.078-0.553,0.643-0.356S-0.245,0.01,0,0"
					/>
			</g>
			<g id="g13018" transform="matrix(23.222837,0,0,-23.222837,1353.86,-1740.9225)">
				<path id="path13020" inkscape:connector-curvature="0" style="fill:#545454;" d="M0,0c0,0-0.417-0.491-1.316-0.493
					c-0.9-0.003-1.384,0.488-1.521,0.612c-0.135,0.124,0.694-0.245,0.964-0.167c0.27,0.076-0.927,0.226-1.613,1.333
					C-4.172,2.393-4.05,2.64-4.047,2.732c0.001,0.094,0.524-0.757,0.684-0.62c0.16,0.14-0.731,1.095-1.019,1.619
					c-0.289,0.524-0.784,1.38-0.955,1.543c-0.17,0.163-0.421,0.484-0.581,0.603s1.026-0.659,1.314-1.02s1.407-1.893,1.623-2.273
					s0.885-1.568,1.377-2.049C-1.163,0.104,0,0,0,0"/>
			</g>
			<g id="g13098" transform="matrix(23.222837,0,0,-23.222837,1762.3706,-1465.8782)">
				<path id="path13100" inkscape:connector-curvature="0" style="fill:#545454;" d="M0,0c-0.14-0.1-1.997-1.327-2.616-1.766
					c-0.618-0.438-0.851-0.784-1.007-0.97c0,0,0.308,0.176,0.877,0.362c0.017,0.005-0.521-1.178,0.188-2.838
					c0.711-1.66,1.688-3.69,1.93-4.913c0.242-1.224,0.116-2.208-1.219-2.452c-1.224-0.225-1.405,0.089-2.697,1.011
					c-0.161,0.114-0.347,0.059-0.084-0.204c0.263-0.261,0.789-1.348,2.559-1.668c1.767-0.317,2.924,0.654,3.286,1.174
					c0,0,0.391,1.064,0.251,1.981C1.28-9.059,1.238-8.645,0.38-7.338C0.054-6.841-0.6-5.701-0.777-5.352
					c-0.232,0.456-1.087,1.361-0.449,2.759c0.017,0.037,0.569-0.912,0.564-0.875c-0.063,0.602-0.005,1.746,0.128,2.04
					c0.136,0.294,0.325,0.953,0.596,1.319C0.153,0.015,0.296,0.213,0,0"/>
			</g>
			<g id="g13126" transform="matrix(23.222837,0,0,-23.222837,1690.6376,-1226.3694)">
				<path id="path13128" inkscape:connector-curvature="0" style="fill:#545454;" d="M0,0c0.157-0.277-4.737,4.031-5.404,10.932
					c-0.116,1.201,0.319,1.935,1.539,1.979c1.219,0.043,4.042-0.064,7.435,0.857c3.392,0.92,4.772,0.786,9.031,4.287
					c0.057,0.047-1.194-2.307-3.717-3.962c-3.663-2.404-4.824-2.445-7.672-2.919c-1.856-0.311-3.537-0.208-3.878-0.236
					c-0.34-0.026-0.678,0.058-0.614-1.268c0.063-1.326,0.82-4.484,1.524-5.955C-1.05,2.243-0.174,0.312,0,0"/>
			</g>
			<g id="g13134" transform="matrix(23.222837,0,0,-23.222837,1611.9888,-1534.2532)">
				<path id="path13136" inkscape:connector-curvature="0" style="fill:#545454;" d="M0,0c0,0-0.059,1.667,0.579,3.049
					c0.258,0.559,0.497,0.618,1.01,0.654c0.495,0.037,2.616,0.06,4.68,0.841c2.063,0.78,4.743,1.478,8.823,5.914
					c0.025,0.029-1.169-2.782-3.082-4.309C8.094,3.026,3.065,2.363,2.505,2.363C1.912,2.365,1.546,1.917,1.453,1.701
					C1.002,0.653,0,0,0,0"/>
			</g>
			<g id="g13146" transform="matrix(23.222837,0,0,-23.222837,1646.549,-1630.7046)">
				<path id="path13148" inkscape:connector-curvature="0" style="fill:#545454;" d="M0,0c0,0,0.143,2.653,0.232,3.221
					c0.032,0.199,0.489,0.327,0.82,0.403c0.235,0.054,3.764,0.784,5.797,2.212c2.012,1.415,3.788,2.314,6.442,6.797
					c0,0-0.528-3.423-2.851-5.598C6.997,3.811,6.161,3.854,1.983,2.447c-0.428-0.144-0.286-0.212-0.59-0.744
					C1.091,1.171,0.775,0.331,0,0z"/>
			</g>
			<g id="g13162" transform="matrix(23.222837,0,0,-23.222837,1358.3048,-1738.2704)">
				<path id="path13164" inkscape:connector-curvature="0" style="fill:#545454;" d="M0,0c0-0.011-0.215,0.197-0.316,0.492
					C-0.529,1.113,0.05,1.673-0.059,1.93C-0.107,2.045-0.404,2.52-0.28,2.923c0.092,0.292,0.163,0.32,0.85,0.38
					c0.866,0.073,1.042-0.244,1.298-0.336c0.699-0.252,0.804-0.408,1.005-0.428c0.332-0.032,0.719-0.158,0.756-0.13
					c0.414,0.323-0.032,1.23,0.708,1.235c0.458,0.002,0.945-0.366,1.268-0.383c0.53-0.027,1.003-0.038,1.321,0.04
					c0.317,0.077,0.695,0.127,0.847,0.307c0.133,0.158,0.265,0.338,0.513,0.691c0,0,1.421,0.839,1.297,0.651
					C9.494,4.815,8.83,4.247,9.003,3.769C9.55,2.92,8.862,2.542,9.035,2.511C9.044,2.509,8.859,2.63,9.386,1.995
					c0.116-0.141-0.017-0.311,0.106-0.48c1.393-0.536,1.334-1.475,1.41-1.777c0.01-0.036,0.084-0.23-0.228,0.02
					c-0.311,0.25-0.673,0.464-0.794,0.436c-0.037-0.008,0.1-0.614,0.386-0.937c0.045-0.05,0.142-0.122,0.344-0.24
					c0.265-0.157,0.524-0.348,0.585-0.423c0.062-0.076,0.489-0.422,0.637-1.436c0.025-0.175-0.363,0.31-0.414,0.35
					c-0.387,0.301-0.656,0.544-0.706,0.084c-0.016-0.136-0.087-0.363-0.093-0.512c-0.005-0.148-0.409-1.125-0.514-1.404
					C9.928-4.802,9.739-5.377,9.423-5.747C9.106-6.118,8.348-7.273,8.166-7.582C7.984-7.892,7.58-8.709,7.445-9.896
					c-0.135-1.186-0.033-2.017,0.008-2.264c0.042-0.248,0.613-2.289,1.076-2.992c0.464-0.703,1.351-1.495,0.937-1.47
					c-0.37,0.022-1.318,1.032-1.58,1.294c-0.263,0.262-0.682,0.567-1.287,1.391c-0.607,0.826-1.18,2.003-1.268,2.225
					c-0.089,0.223-0.753,3.029-1.2,2.878c-0.455-0.154,0.58-3.02,0.787-3.553c0.031-0.077,0.925-1.789,0.271-2.036
					c-0.425-0.159-0.921,0.389-1.152,0.586c-0.23,0.199-1.034,1.05-1.306,0.829c-0.381-0.307,0.409-1.263,0.151-1.404
					c-0.258-0.14-1.113,0.109-2.283,0.532c-0.276,0.1-0.706-0.041-0.502-0.27c0.205-0.229,1.392-0.715,1.566-0.747
					c0.175-0.032,0.861-0.213,1.344-0.247c0.483-0.033,2.004-0.846,2.291-1.013c0.286-0.166,1.577-1.211,1.759-1.425
					c0.182-0.215,0.651-0.789,1.047-1.82c0.394-1.032,0.781-1.937,0.471-2.886c-0.308-0.952-0.443-1.664-1.595-2.035
					c-0.059-0.02-0.123,0.003,0.003,0.127c0.126,0.125,0.913,0.747,0.851,1.864c-0.061,1.119-0.594,1.845-0.755,2.077
					c-0.16,0.233-0.748,0.998-1.811,1.689c-1.064,0.691-2.578,1.32-2.753,1.415c-0.174,0.095-1.569,1.062-2.159,1.698
					C-0.2-14.854-0.428-14.751-0.8-13.819c-0.37,0.923-0.288,1.459-0.291,1.815c-0.002,0.358-0.135,1.159-0.297,1.545
					s2.059,1.306,2.284,1.676C0.991-8.628,0.969-7.08,1.548-6.529C2.77-5.369,3.214-4.875,3.47-4.761
					c0.257,0.115,0.931,0.573,1.27,0.844c0.337,0.272,2.007,1.619,1.5,2.358C5.805-0.927,4.21-1.211,3.736-1.334
					C3.421-1.415,3.235-1.494,2.861-1.63C2.749-1.671,2.142-1.892,1.995-2.019C1.877-2.121,1.217-2.427,0.856-2.555
					C0.65-2.628-0.401-1.736,0.184-0.361c0.054,0.13,0.547-0.857,0.93-0.756C1.272-1.075,1.33-0.812,1.48-0.753
					c0.11-0.105,0.065-0.276,0.516,0.206c0.465-0.239,0.567,0.214,0.699,0.503c0.002,0.003,0.731-0.338,0.87,0.026
					C3.729,0.41,3.551,0.874,3.293,0.914C2.456,1.046,2.234,0.15,2.226-0.169C2.222-0.333,1.948,0.762,1.467-0.203
					C1.45-0.238,1.001,0.869,0.885-0.436C0.884-0.443,0.784-0.381,0.591-0.098C0.514,0.016,0.358,0.581,0.275,0.448
					c-0.14-0.226-0.3-0.275-0.3-0.393L0,0z"/>
			</g>
		</g>
		<g id="g13006" transform="matrix(23.222837,0,0,-23.222837,1479.1588,-1655.5391)">
			<path id="path13008" inkscape:connector-curvature="0" style="fill:#545454;" d="M0,0c0,0-1.118-0.788-1.525-1.049
				C-1.932-1.311-2.86-2.384-3.147-2.646C-3.433-2.907-3.815-3.007-4.22-2.813c-0.404,0.192-1.333,0.619-1.787,0.905
				c-0.454,0.286-1.764,1.837-2.526,2.122C-9.296,0.501-9.558,0.071-9.558,0s-0.811,0.498-1.073,0.476
				c-0.262-0.022-0.657-0.14-0.644-0.641c0.003-0.097-0.143-0.122-0.476-0.097s-0.884-0.911-0.047-1.621
				c0.036-0.029-0.022,0.668,0.214,0.668c0.237,0-0.062-0.364,1.215-0.572c0.076-0.013,0.406-0.099-0.047,0.237
				c-0.454,0.335-0.451,0.716,0,0.644s0.726-0.58,1.621-0.762c0.12-0.025,0.308,0.093-0.025-0.24
				C-9.153-2.241-8.856-2.587-8.487-2.86c0.358-0.264,0.661-0.605,0.763-1.192c0.049-0.287,0.096-0.429-0.047-0.549
				C-7.914-4.719-8.349-4.782-8.058-4.84c0.355-0.071,0.786,0.044,0.882,0.43c0.12,0.493,0,0.979,0.214,1.144
				C-6.747-3.1-6.269-3.168-6.007-3.623c0.262-0.454,0.785-1.886,0.81-1.98c0.025-0.093-1.859,0.216-2.835,0.501
				c-0.978,0.288-2.815,1.612-3.386,1.694c-0.333,0.047-1.054,0.305-1.285-0.501c-0.026-0.094-0.69,0.336-1.193,0.308
				c-0.405-0.022-0.728-0.375-0.55-0.951c0.025-0.08-1.316,0.022-0.999-1.168c0.19-0.717,0.774-1.069,1.094-1.217
				c0.097-0.044,0.334-0.119-0.07,0.215c-0.405,0.333-0.381,0.884-0.237,0.954c0.142,0.072,0.357-0.264,0.69-0.264
				c0.334,0,0.786-0.071,0.928,0.072c0.144,0.144,0.074,0.047-0.309,0.215C-13.73-5.577-13.8-5.15-13.395-5.126
				c0.405,0.024,0.938-0.466,2.216-0.38c0.042,0.002-0.57-0.666-0.047-1.168c0.524-0.5,1.234-0.685,1.74-1.67
				c0.096-0.187,0.384-0.982-1.074-0.691c-0.125,0.027-0.142-0.165,0.072-0.237c0.215-0.071,1.716-0.355,1.811,0.43
				C-8.58-8.057-9.081-7.56-9.105-7.295C-9.131-7.031-8.914-6.602-8.319-6.77c0.595-0.167,1.384-1.123,1.622-1.574
				c0.236-0.451,0.368-0.983,0.596-1.525C-6.07-9.941-2.742-6.555-3.1-5.173s2.886,4.029,3.004,4.22C0.021-0.763,0,0,0,0"/>
		</g>
	</g>
	<g id="g13054" transform="matrix(23.222837,0,0,-23.222837,1087.3872,-962.43724)">
		
			<path id="path13056" inkscape:connector-curvature="0" style="fill:#545454;stroke:#076D80;stroke-width:0.235;stroke-miterlimit:3.864;" d="
			M0,0l38.854,0.007"/>
	</g>
	<g id="g13086" transform="matrix(23.222837,0,0,-23.222837,1043.301,-763.6126)">
		
			<path id="path13088" inkscape:connector-curvature="0" style="fill:#545454;stroke:#076D80;stroke-width:0.235;stroke-miterlimit:3.864;" d="
			M0,0h42.783"/>
	</g>
	<g id="g13114" transform="matrix(23.222837,0,0,-23.222837,1393.2993,-1206.7531)">
		<path id="path13116" inkscape:connector-curvature="0" style="fill:#545454;" d="M0,0c0,0,0.021,0.192-0.022,0.312
			c-0.044,0.115-0.057,0.267-0.249,0.244C-0.413,0.539-0.302,0.21-0.302,0.21s0.086-0.18,0.247-0.205C-0.039,0.002,0,0,0,0"/>
	</g>
	<g id="g13118" transform="matrix(23.222837,0,0,-23.222837,1393.2993,-1206.7531)">
		<path id="path13120" inkscape:connector-curvature="0" style="fill:#545454;" d="M0,0c0,0,0.021,0.192-0.022,0.312
			c-0.044,0.115-0.057,0.267-0.249,0.244C-0.413,0.539-0.302,0.21-0.302,0.21s0.086-0.18,0.247-0.205C-0.039,0.002,0,0,0,0z"/>
	</g>
	<g id="g14626">
		<g id="g13022" transform="matrix(23.222837,0,0,-23.222837,1044.4807,-858.90983)">
			<path id="path13024" inkscape:connector-curvature="0" style="fill:#545454;" d="M0,0c0-1.046,0.503-1.783,1.151-2.229
				C1.743-2.626,2.44-2.771,3.17-2.771c0.518,0,1.102,0.121,1.28,0.185c0.09,0.033,0.186,0.065,0.283,0.082
				c0.122,0.153,0.333,0.689,0.39,1.109C5.091-1.338,4.969-1.32,4.913-1.361c-0.187-0.479-0.648-1.16-1.695-1.16
				c-1.329,0-2.406,0.94-2.406,2.643c0,1.678,1.053,2.464,2.293,2.464c1.175,0,1.541-0.632,1.662-1.184
				c0.056-0.048,0.178-0.04,0.218,0.017C4.921,1.914,4.88,2.425,4.871,2.61C4.799,2.602,4.742,2.618,4.646,2.643
				C4.265,2.748,3.648,2.837,3.21,2.837c-0.843,0-1.597-0.227-2.189-0.689C0.405,1.67,0,0.9,0,0"/>
		</g>
		<g id="g13026" transform="matrix(23.222837,0,0,-23.222837,1216.9962,-890.72744)">
			<path id="path13028" inkscape:connector-curvature="0" style="fill:#545454;" d="M0,0c0.089,0.242,0.17,0.437,0.194,0.478H0.21
				c0.049-0.097,0.122-0.315,0.186-0.51l0.439-1.322c0.073-0.218,0.056-0.25-0.178-0.25H-0.34c-0.227,0-0.235,0.007-0.171,0.194L0,0
				z M1.451-3.234c0.065-0.195,0.106-0.341,0.106-0.43c0-0.081-0.114-0.13-0.286-0.146L1.037-3.834
				c-0.057-0.04-0.049-0.17,0.016-0.203c0.235,0.009,0.544,0.025,0.932,0.025c0.366,0,0.649-0.009,0.982-0.025
				c0.04,0.033,0.055,0.163,0,0.203L2.747-3.81C2.399-3.769,2.295-3.647,2.06-2.951l-1.112,3.26
				C0.827,0.664,0.697,1.037,0.591,1.395C0.575,1.451,0.519,1.467,0.47,1.467C0.381,1.361,0.242,1.216,0.049,1.159
				c0.024-0.13-0.025-0.284-0.139-0.575l-0.827-2.188C-1.257-2.513-1.483-3.04-1.63-3.413C-1.742-3.705-1.922-3.794-2.115-3.81
				l-0.269-0.024c-0.049-0.04-0.032-0.17,0.017-0.203c0.22,0.009,0.511,0.025,0.778,0.025c0.381-0.009,0.633-0.009,0.844-0.025
				c0.072,0.033,0.072,0.163,0.016,0.203L-0.997-3.81c-0.195,0.016-0.234,0.065-0.234,0.163c0,0.089,0.055,0.307,0.177,0.672
				l0.283,0.851C-0.713-1.953-0.665-1.93-0.462-1.93h1.223c0.244,0,0.276-0.023,0.333-0.201C1.094-2.131,1.451-3.234,1.451-3.234z"
				/>
		</g>
		<g id="g13030" transform="matrix(23.222837,0,0,-23.222837,1311.3622,-825.79871)">
			<path id="path13032" inkscape:connector-curvature="0" style="fill:#545454;" d="M0,0c0-0.852-0.04-0.973-0.503-1.014
				L-0.77-1.038c-0.048-0.049-0.033-0.178,0.016-0.203C-0.275-1.225,0-1.216,0.349-1.216h0.728c0.722,0,1.444-0.009,2.173-0.025
				c0.105,0.22,0.309,0.843,0.365,1.128C3.582-0.041,3.469-0.017,3.413-0.058C3.201-0.479,2.982-0.762,2.836-0.844
				C2.659-0.933,2.424-0.965,1.799-0.965c-0.712,0-0.883,0.089-0.981,0.186c-0.13,0.138-0.154,0.414-0.154,0.843v1.143
				c0,0.211,0.024,0.219,0.268,0.219h0.47c0.317,0,0.511-0.008,0.624-0.04c0.162-0.041,0.219-0.162,0.251-0.309l0.074-0.316
				C2.392,0.713,2.529,0.713,2.562,0.77c0,0.178-0.033,0.485-0.033,0.778c0,0.307,0.033,0.624,0.033,0.818
				c-0.033,0.057-0.17,0.057-0.211,0.008L2.286,2.042C2.245,1.84,2.188,1.791,2.091,1.758C1.994,1.726,1.743,1.71,1.402,1.71h-0.47
				c-0.244,0-0.268,0-0.268,0.227v1.621c0,0.308,0,0.324,0.243,0.324h0.584c0.357,0,0.616-0.008,0.786-0.049
				c0.422-0.104,0.494-0.389,0.618-0.77C2.934,3.015,3.063,3.03,3.096,3.079c-0.033,0.359-0.08,0.941-0.13,1.078
				C2.869,4.134,2.392,4.134,1.872,4.134H0.349c-0.333,0-0.609,0.008-0.957,0.023c-0.048-0.023-0.065-0.17-0.016-0.202l0.129-0.017
				C-0.016,3.882,0,3.761,0,2.917V0z"/>
		</g>
		<g id="g13034" transform="matrix(23.222837,0,0,-23.222837,1429.6756,-910.48078)">
			<path id="path13036" inkscape:connector-curvature="0" style="fill:#545454;" d="M0,0c0,0.228,0.024,0.26,0.527,0.26
				c0.9,0,1.296-0.609,1.296-1.249c0-0.551-0.185-0.834-0.404-1.004C1.184-2.172,0.875-2.204,0.584-2.204
				c-0.414,0-0.535,0.016-0.56,0.04C0-2.132,0-2.042,0-1.896V0z M-0.664-3.646c0-0.852-0.017-0.958-0.486-1.014l-0.204-0.025
				c-0.047-0.056-0.032-0.177,0.016-0.203c0.381,0.017,0.674,0.026,1.014,0.026c0.324,0,0.599-0.009,0.965-0.026
				c0.047,0.026,0.064,0.163,0.015,0.203L0.486-4.66C0.017-4.596,0-4.498,0-3.646v1.02c0,0.171,0.017,0.179,0.382,0.179
				c0.323,0,0.453-0.082,0.575-0.259C1.208-3.071,1.54-3.631,1.752-3.931c0.574-0.818,0.988-1.02,1.677-1.02
				c0.154,0,0.284,0.015,0.357,0.04c0.04,0.032,0.032,0.097-0.009,0.112C3.559-4.782,3.356-4.693,3.218-4.571
				c-0.551,0.463-0.981,1.11-1.63,2.156c-0.04,0.065-0.079,0.146-0.04,0.194c0.405,0.162,1.014,0.583,1.014,1.355
				c0,0.567-0.285,0.931-0.672,1.134C1.517,0.471,1.038,0.511,0.535,0.511c-0.794,0-1.354-0.024-1.807-0.065
				C-1.338,0.413-1.338,0.283-1.28,0.244l0.259-0.033c0.332-0.04,0.357-0.179,0.357-0.948C-0.664-0.737-0.664-3.646-0.664-3.646z"/>
		</g>
		<g id="g13038" transform="matrix(23.222837,0,0,-23.222837,1553.3859,-899.57069)">
			<path id="path13040" inkscape:connector-curvature="0" style="fill:#545454;" d="M0,0c0,0.365,0.017,0.567,0.082,0.616
				c0.064,0.049,0.324,0.113,0.802,0.113c2.124,0,2.554-1.506,2.554-2.399c0-1.507-0.706-2.536-2.279-2.536
				c-0.511,0-0.818,0.08-0.997,0.332C0.025-3.681,0-3.421,0-2.991V0z M-0.664-3.177c0-0.851-0.016-0.949-0.486-1.013l-0.187-0.025
				c-0.049-0.049-0.032-0.178,0.016-0.203c0.382,0.017,0.674,0.025,1.013,0.025c0.285,0,0.803-0.065,1.322-0.065
				c0.624,0,1.289,0.105,1.816,0.389c0.924,0.503,1.418,1.385,1.418,2.415c0,1.071-0.552,1.995-1.645,2.391
				C2.076,0.933,1.5,0.98,0.819,0.98c-0.689,0-1.345-0.023-2.035-0.064c-0.08-0.033-0.072-0.163-0.008-0.202l0.179-0.025
				c0.34-0.048,0.381-0.219,0.381-0.787C-0.664-0.098-0.664-3.177-0.664-3.177z"/>
		</g>
		<g id="g13042" transform="matrix(23.222837,0,0,-23.222837,1714.9937,-835.9587)">
			<path id="path13044" inkscape:connector-curvature="0" style="fill:#545454;" d="M0,0c0,0.624,0.016,0.704,0.381,1.313
				l0.511,0.883c0.405,0.698,0.648,1.217,1.07,1.281l0.226,0.041C2.245,3.566,2.237,3.68,2.172,3.72
				C1.896,3.704,1.67,3.696,1.418,3.696c-0.251,0-0.485,0.008-0.777,0.024C0.574,3.688,0.567,3.574,0.624,3.518L0.77,3.501
				C0.965,3.477,1.111,3.42,1.111,3.372c0-0.098-0.301-0.648-0.527-1.07C0.34,1.831,0.072,1.361-0.179,0.932
				c-0.315,0.56-0.616,1.2-0.915,1.799c-0.041,0.082-0.252,0.543-0.252,0.624c0,0.065,0.057,0.098,0.341,0.146l0.106,0.017
				c0.047,0.048,0.047,0.178-0.026,0.202c-0.202-0.016-0.493-0.024-0.866-0.024c-0.39,0-0.682,0.008-0.94,0.024
				c-0.057-0.032-0.066-0.146-0.017-0.202l0.227-0.041c0.243-0.04,0.365-0.081,0.64-0.617l0.956-1.864
				c0.236-0.453,0.261-0.559,0.261-1.004v-0.414c0-0.867-0.018-0.98-0.487-1.029l-0.251-0.025c-0.049-0.048-0.034-0.177,0.015-0.203
				c0.43,0.017,0.723,0.026,1.062,0.026c0.325,0,0.6-0.009,1.103-0.026c0.049,0.026,0.065,0.155,0.016,0.203L0.486-1.451
				C0.048-1.418,0-1.289,0-0.422V0z"/>
		</g>
		<g id="g13046" transform="matrix(23.222837,0,0,-23.222837,1803.554,-899.57069)">
			<path id="path13048" inkscape:connector-curvature="0" style="fill:#545454;" d="M0,0c0,0.365,0.017,0.567,0.081,0.616
				c0.065,0.049,0.323,0.113,0.802,0.113c2.124,0,2.555-1.506,2.555-2.399c0-1.507-0.707-2.536-2.279-2.536
				c-0.511,0-0.818,0.08-0.996,0.332C0.024-3.681,0-3.421,0-2.991V0z M-0.665-3.177c0-0.851-0.016-0.949-0.486-1.013l-0.186-0.025
				C-1.386-4.264-1.37-4.393-1.321-4.418c0.381,0.017,0.673,0.025,1.013,0.025c0.284,0,0.802-0.065,1.321-0.065
				c0.624,0,1.289,0.105,1.816,0.389c0.924,0.503,1.419,1.385,1.419,2.415c0,1.071-0.553,1.995-1.645,2.391
				C2.075,0.933,1.499,0.98,0.819,0.98c-0.69,0-1.346-0.023-2.035-0.064c-0.081-0.033-0.073-0.163-0.009-0.202l0.179-0.025
				c0.341-0.048,0.381-0.219,0.381-0.787C-0.665-0.098-0.665-3.177-0.665-3.177z"/>
		</g>
		<g id="g13050" transform="matrix(23.222837,0,0,-23.222837,1937.6519,-899.57069)">
			<path id="path13052" inkscape:connector-curvature="0" style="fill:#545454;" d="M0,0c0,0.365,0.017,0.567,0.081,0.616
				c0.065,0.049,0.324,0.113,0.803,0.113c2.123,0,2.553-1.506,2.553-2.399c0-1.507-0.706-2.536-2.278-2.536
				c-0.511,0-0.819,0.08-0.997,0.332C0.024-3.681,0-3.421,0-2.991V0z M-0.664-3.177c0-0.851-0.017-0.949-0.486-1.013l-0.188-0.025
				c-0.049-0.049-0.031-0.178,0.017-0.203c0.381,0.017,0.673,0.025,1.012,0.025c0.285,0,0.804-0.065,1.322-0.065
				c0.626,0,1.29,0.105,1.816,0.389c0.924,0.503,1.418,1.385,1.418,2.415c0,1.071-0.551,1.995-1.645,2.391
				C2.075,0.933,1.499,0.98,0.818,0.98c-0.688,0-1.345-0.023-2.034-0.064c-0.081-0.033-0.073-0.163-0.008-0.202l0.178-0.025
				c0.341-0.048,0.382-0.219,0.382-0.787C-0.664-0.098-0.664-3.177-0.664-3.177z"/>
		</g>
		<g id="g13058" transform="matrix(23.222837,0,0,-23.222837,1161.7049,-1056.2134)">
			<path id="path13060" inkscape:connector-curvature="0" style="fill:#545454;" d="M0,0c0-1.045,0.501-1.783,1.15-2.229
				c0.593-0.397,1.289-0.542,2.019-0.542c0.519,0,1.102,0.121,1.281,0.186c0.088,0.031,0.186,0.064,0.283,0.08
				c0.121,0.155,0.332,0.69,0.389,1.11C5.09-1.337,4.969-1.32,4.911-1.36C4.725-1.84,4.263-2.521,3.217-2.521
				c-1.328,0-2.407,0.941-2.407,2.643c0,1.678,1.053,2.464,2.294,2.464c1.176,0,1.541-0.632,1.662-1.184
				c0.056-0.048,0.178-0.04,0.218,0.017C4.92,1.913,4.879,2.424,4.871,2.61c-0.073-0.007-0.13,0.009-0.226,0.033
				C4.263,2.748,3.647,2.837,3.209,2.837c-0.844,0-1.597-0.227-2.188-0.689C0.404,1.67,0,0.899,0,0"/>
		</g>
		<g id="g13062" transform="matrix(23.222837,0,0,-23.222837,1336.0806,-1088.031)">
			<path id="path13064" inkscape:connector-curvature="0" style="fill:#545454;" d="M0,0c0.09,0.243,0.17,0.437,0.194,0.479h0.017
				c0.049-0.098,0.12-0.317,0.185-0.511l0.439-1.322c0.072-0.218,0.057-0.25-0.179-0.25h-0.997c-0.226,0-0.235,0.007-0.17,0.194L0,0
				z M1.45-3.234c0.066-0.195,0.106-0.34,0.106-0.429c0-0.081-0.114-0.131-0.284-0.147L1.037-3.834
				C0.98-3.875,0.989-4.004,1.053-4.036c0.236,0.008,0.543,0.023,0.932,0.023c0.365,0,0.649-0.008,0.982-0.023
				c0.04,0.032,0.056,0.161,0,0.202L2.748-3.81C2.399-3.77,2.294-3.648,2.059-2.95L0.947,0.309c-0.12,0.355-0.251,0.728-0.355,1.086
				C0.575,1.452,0.519,1.467,0.47,1.467C0.381,1.362,0.243,1.216,0.048,1.159c0.024-0.13-0.025-0.283-0.138-0.575l-0.826-2.188
				C-1.257-2.513-1.484-3.04-1.63-3.413C-1.743-3.704-1.921-3.794-2.116-3.81l-0.268-0.024c-0.048-0.041-0.032-0.17,0.017-0.202
				c0.219,0.008,0.51,0.023,0.778,0.023c0.381-0.008,0.632-0.008,0.843-0.023c0.074,0.032,0.074,0.161,0.016,0.202L-0.997-3.81
				c-0.194,0.016-0.235,0.066-0.235,0.162c0,0.089,0.057,0.309,0.178,0.673l0.284,0.851C-0.714-1.953-0.665-1.93-0.463-1.93h1.225
				c0.243,0,0.275-0.023,0.332-0.202L1.45-3.234z"/>
		</g>
		<g id="g13066" transform="matrix(23.222837,0,0,-23.222837,1442.1021,-1107.8052)">
			<path id="path13068" inkscape:connector-curvature="0" style="fill:#545454;" d="M0,0c0,0.227,0.024,0.26,0.527,0.26
				c0.9,0,1.297-0.609,1.297-1.249c0-0.551-0.186-0.834-0.405-1.005C1.184-2.172,0.876-2.206,0.584-2.206
				c-0.414,0-0.535,0.018-0.56,0.042C0-2.132,0-2.043,0-1.896V0z M-0.664-3.648c0-0.852-0.017-0.956-0.486-1.013l-0.203-0.025
				c-0.049-0.056-0.034-0.178,0.016-0.202c0.381,0.016,0.673,0.024,1.014,0.024C0-4.864,0.276-4.872,0.64-4.888
				c0.049,0.024,0.066,0.161,0.016,0.202l-0.17,0.025C0.016-4.596,0-4.5,0-3.648v1.021c0,0.171,0.016,0.179,0.381,0.179
				c0.325,0,0.454-0.081,0.576-0.26c0.251-0.364,0.584-0.924,0.794-1.224C2.326-4.751,2.74-4.953,3.429-4.953
				c0.154,0,0.284,0.016,0.357,0.04C3.825-4.88,3.817-4.815,3.777-4.799C3.559-4.783,3.356-4.693,3.218-4.571
				C2.667-4.11,2.237-3.462,1.59-2.415C1.548-2.352,1.508-2.27,1.548-2.222C1.954-2.06,2.562-1.638,2.562-0.867
				c0,0.566-0.285,0.931-0.673,1.135C1.516,0.47,1.037,0.511,0.534,0.511c-0.794,0-1.352-0.025-1.806-0.066
				C-1.337,0.413-1.337,0.283-1.28,0.242l0.259-0.031c0.333-0.041,0.357-0.179,0.357-0.949C-0.664-0.738-0.664-3.648-0.664-3.648z"
				/>
		</g>
		<g id="g13070" transform="matrix(23.222837,0,0,-23.222837,1565.838,-1096.8742)">
			<path id="path13072" inkscape:connector-curvature="0" style="fill:#545454;" d="M0,0c0,0.365,0.017,0.567,0.081,0.616
				C0.146,0.664,0.405,0.73,0.884,0.73c2.123,0,2.553-1.507,2.553-2.4c0-1.508-0.706-2.537-2.278-2.537
				c-0.511,0-0.819,0.082-0.997,0.333C0.024-3.68,0-3.421,0-2.991V0z M-0.665-3.178c0-0.851-0.017-0.947-0.485-1.012l-0.188-0.025
				C-1.386-4.264-1.37-4.394-1.321-4.417c0.381,0.016,0.673,0.023,1.012,0.023c0.284,0,0.804-0.064,1.322-0.064
				c0.625,0,1.289,0.104,1.816,0.389c0.924,0.503,1.418,1.386,1.418,2.416c0,1.07-0.551,1.994-1.645,2.391
				C2.075,0.932,1.499,0.981,0.818,0.981c-0.688,0-1.345-0.024-2.034-0.065C-1.298,0.884-1.29,0.754-1.224,0.713l0.178-0.023
				c0.341-0.049,0.381-0.219,0.381-0.788C-0.665-0.098-0.665-3.178-0.665-3.178z"/>
		</g>
		<g id="g13074" transform="matrix(23.222837,0,0,-23.222837,1690.1615,-1023.4645)">
			<path id="path13076" inkscape:connector-curvature="0" style="fill:#545454;" d="M0,0c0-0.859-0.017-0.973-0.495-1.029
				l-0.203-0.025c-0.048-0.049-0.031-0.178,0.017-0.202C-0.276-1.24,0-1.232,0.34-1.232c0.324,0,0.599-0.008,1.005-0.024
				c0.049,0.024,0.065,0.17,0.016,0.202L1.159-1.029C0.681-0.973,0.664-0.859,0.664,0v2.886c0,0.859,0.017,0.997,0.495,1.037
				l0.202,0.016C1.41,3.972,1.394,4.118,1.345,4.143C0.939,4.127,0.664,4.118,0.34,4.118c-0.34,0-0.616,0.009-1.021,0.025
				c-0.048-0.025-0.065-0.171-0.017-0.204l0.203-0.016C-0.017,3.883,0,3.745,0,2.886V0z"/>
		</g>
		<g id="g13078" transform="matrix(23.222837,0,0,-23.222837,1762.1198,-1105.7198)">
			<path id="path13080" inkscape:connector-curvature="0" style="fill:#545454;" d="M0,0c0,0.31,0,0.324,0.244,0.324h0.494
				c0.341,0,0.609-0.008,0.786-0.049C1.93,0.162,2.027-0.13,2.092-0.494c0.056-0.048,0.171-0.025,0.194,0.023
				c-0.015,0.31-0.023,0.699-0.023,1.072C2.156,0.576,1.687,0.576,1.167,0.576h-1.491c-0.323,0-0.599,0.009-0.94,0.025
				C-1.312,0.576-1.328,0.43-1.28,0.397l0.13-0.016c0.47-0.057,0.486-0.169,0.486-1.021v-2.919c0-0.851-0.016-0.956-0.486-1.012
				l-0.204-0.025c-0.048-0.049-0.031-0.178,0.017-0.202c0.381,0.016,0.657,0.024,1.013,0.024c0.324,0,0.599-0.008,1.078-0.024
				c0.049,0.024,0.066,0.17,0.017,0.202L0.495-4.571C0.017-4.531,0-4.41,0-3.559v1.127c0,0.211,0.025,0.22,0.268,0.22H0.82
				c0.307,0,0.511-0.009,0.623-0.042c0.155-0.048,0.227-0.161,0.26-0.307l0.081-0.316c0.058-0.049,0.179-0.049,0.211,0
				c0,0.186-0.032,0.494-0.032,0.786c0,0.3,0.032,0.625,0.032,0.819c-0.032,0.047-0.171,0.047-0.211,0L1.711-1.597
				c-0.049-0.21-0.113-0.251-0.202-0.284C1.411-1.913,1.152-1.929,0.82-1.929H0.268C0.025-1.929,0-1.929,0-1.71V0z"/>
		</g>
		<g id="g13082" transform="matrix(23.222837,0,0,-23.222837,1856.3255,-1105.7198)">
			<path id="path13084" inkscape:connector-curvature="0" style="fill:#545454;" d="M0,0c0,0.31,0,0.324,0.242,0.324h0.496
				c0.339,0,0.607-0.008,0.786-0.049C1.929,0.162,2.026-0.13,2.091-0.494c0.056-0.048,0.17-0.025,0.195,0.023
				C2.27-0.161,2.261,0.228,2.261,0.601C2.156,0.576,1.686,0.576,1.167,0.576h-1.492c-0.323,0-0.599,0.009-0.94,0.025
				C-1.312,0.576-1.33,0.43-1.28,0.397l0.129-0.016c0.469-0.057,0.487-0.169,0.487-1.021v-2.919c0-0.851-0.018-0.956-0.487-1.012
				l-0.203-0.025c-0.048-0.049-0.032-0.178,0.016-0.202c0.381,0.016,0.656,0.024,1.013,0.024c0.325,0,0.6-0.008,1.079-0.024
				c0.048,0.024,0.064,0.17,0.016,0.202L0.495-4.571C0.016-4.531,0-4.41,0-3.559v1.127c0,0.211,0.024,0.22,0.268,0.22h0.55
				c0.309,0,0.511-0.009,0.624-0.042C1.597-2.302,1.67-2.415,1.701-2.561l0.082-0.316c0.057-0.049,0.178-0.049,0.211,0
				c0,0.186-0.033,0.494-0.033,0.786c0,0.3,0.033,0.625,0.033,0.819c-0.033,0.047-0.171,0.047-0.211,0L1.71-1.597
				c-0.048-0.21-0.113-0.251-0.202-0.284C1.41-1.913,1.151-1.929,0.818-1.929h-0.55C0.024-1.929,0-1.929,0-1.71V0z"/>
		</g>
		<g id="g13102" transform="matrix(23.222837,0,0,-23.222837,1572.2777,-1325.9745)">
			<path id="path13104" inkscape:connector-curvature="0" style="fill:#545454;" d="M0,0c-0.03,0.035-0.345,0.297-0.179-0.094
				c0.166-0.39,0.642-1.264,0.705-1.811c0.063-0.549-0.1-0.509-0.063-0.608c0.037-0.1,0.356-0.052,0.415,0.168
				c0.056,0.22,0.287,0.45,0.274,0.491c-0.012,0.04,0.756-0.139,0.902,0.01c0.144,0.15,0.084,0.135-0.091,0.233
				C1.788-1.514,1.231-1.394,0.645-0.749C0.057-0.104,0.114-0.128,0,0"/>
		</g>
		<g id="g13110" transform="matrix(23.222837,0,0,-23.222837,1505.807,-1203.9176)">
			<path id="path13112" inkscape:connector-curvature="0" style="fill:#545454;" d="M0,0c-0.053-0.104-0.506-1.025-1.308-1.146
				c-0.801-0.123-1.68-0.033-2.395,0.106C-4.418-0.902-5.55-0.791-5.949-0.947c-0.403-0.157-1.745-0.911-2.826-0.86
				c-1.081,0.053-1.658,0.563-2.39,0.737c-0.731,0.174-1.839,0.08-2.171-0.163c0,0-0.174,0.225,0.559,0.712
				c0.732,0.487,1.702,0.149,2.596,0.347c0.315,0.07,2.1,0.085,2.312,0.678c0.21,0.582,0.366,0.172,0.395,0.093
				c0.503-1.339,2.128,0.3,2.275,0.822c0.206,0.739-0.248,1.459-0.234,1.45c0.562-0.302,1.314-0.886,1.63-1.218
				c0.669-0.704,0.978-1.355,1.554-1.669C-1.674-0.33-1.256-0.868-0.018,0"/>
		</g>
		<g id="g13122" transform="matrix(23.222837,0,0,-23.222837,1368.012,-1329.2628)">
			<path id="path13124" inkscape:connector-curvature="0" style="fill:#545454;" d="M0,0c0,0-0.048-0.383,0.033-0.617
				c0.083-0.235,0.102-0.537,0.481-0.499c0.285,0.029,0.075,0.688,0.075,0.688s-0.164,0.362-0.48,0.417C0.075-0.005,0,0,0,0"/>
		</g>
		<g id="g13150" transform="matrix(23.222837,0,0,-23.222837,1521.7959,-1379.4265)">
			<path id="path13152" inkscape:connector-curvature="0" style="fill:#545454;" d="M0,0c0,0-0.046-0.382,0.035-0.616
				c0.082-0.236,0.102-0.537,0.479-0.499C0.8-1.087,0.591-0.428,0.591-0.428S0.426-0.066,0.109-0.01C0.076-0.004,0,0,0,0"/>
		</g>
		<g id="g13154" transform="matrix(23.222837,0,0,-23.222837,1617.6807,-1211.1074)">
			<path id="path13156" inkscape:connector-curvature="0" style="fill:#545454;" d="M0,0c0,0-0.048-0.382,0.033-0.617
				c0.083-0.235,0.102-0.537,0.481-0.498c0.285,0.028,0.075,0.687,0.075,0.687S0.425-0.067,0.107-0.011C0.075-0.005,0,0,0,0"/>
		</g>
		<g id="g13158" transform="matrix(23.222837,0,0,-23.222837,1667.8908,-1227.7303)">
			<path id="path13160" inkscape:connector-curvature="0" style="fill:#545454;" d="M0,0c0.247-0.239,0.443-0.366,0.443-0.366
				s0.695-0.451,0.931-0.737c0.222-0.267,0.25-0.545,0.094-0.71C1.321-1.967,1.106-1.998,0.95-1.896
				c-0.157,0.1-0.346,0.238-0.432,0.491C0.43-1.152,0.302-0.819,0.198-0.666C0.097-0.513,0.083-0.333,0.017-0.27
				C-0.049-0.205-0.153,0.149,0,0"/>
		</g>
	</g>
	<g id="g13166" transform="matrix(23.222837,0,0,-23.222837,1414.7061,-1441.1574)">
		<path id="path13168" inkscape:connector-curvature="0" style="fill:#545454;" d="M0,0c0,0,0.059,0.249,0.022,0.409
			c-0.036,0.16-0.025,0.361-0.279,0.363c-0.189,0.002-0.101-0.446-0.101-0.446s0.083-0.25,0.288-0.31C-0.05,0.01,0,0,0,0"/>
	</g>
	<g id="g13174" transform="matrix(23.222837,0,0,-23.222837,1468.7039,-1546.6356)">
		<path id="path13176" inkscape:connector-curvature="0" style="fill:#545454;" d="M0,0c0,0,0.064,0.234,0.035,0.388
			c-0.03,0.153-0.014,0.343-0.253,0.353C-0.398,0.75-0.329,0.32-0.329,0.32s0.068-0.24,0.262-0.303C-0.048,0.01,0,0,0,0"/>
	</g>
	<g id="g13182" transform="matrix(23.222837,0,0,-23.222837,1456.5258,-1742.4877)">
		<path id="path13184" inkscape:connector-curvature="0" style="fill:#545454;" d="M0,0c-0.073-0.355-0.458-0.535-0.821-0.56
			c-0.123-0.008-0.191,0.038-0.313,0.063c0.415,0.017,0.86,0.106,0.942,0.511c0.045,0.224,0.027,0.396-0.131,0.557
			C-0.49,0.745-0.561,0.82-0.903,1.048c-0.068,0.045,0.117-0.041,0.188-0.067C-0.285,0.808,0.093,0.452,0,0"/>
	</g>
	<g id="g13186" transform="matrix(23.222837,0,0,-23.222837,1381.2792,-1762.4454)">
		<path id="path13188" inkscape:connector-curvature="0" style="fill:#545454;" d="M0,0c-0.446,0.15-0.702,0.079-1.069-0.134
			c-0.163-0.095,0.152,0.342,0.152,0.342c0.296,0.121,0.443,0.17,0.676,0.173C0.021,0.386,0.17,0.248,0.311,0.234
			c0.196-0.02,0.305-0.087,0.507-0.088C1.049,0.153,1.59,0.458,1.8,0.427C1.375,0.294,1.262-0.037,0.812-0.061"/>
	</g>
	<g id="g13190" transform="matrix(23.222837,0,0,-23.222837,1384.4537,-1795.6703)">
		<path id="path13192" inkscape:connector-curvature="0" style="fill:#545454;" d="M0,0c-0.368,0.238-0.861,0.181-1.13,0.107
			c-0.006,0.141,0.25,0.256,0.25,0.256c0.155,0.088,0.279,0.105,0.43,0.095C-0.314,0.45-0.067,0.336,0.021,0.31
			c0.12-0.038,0.22-0.078,0.346-0.102C0.512,0.187,1.046,0.037,1.176-0.01C0.903-0.061,0.288-0.079,0,0"/>
	</g>
	<g id="g13198" transform="matrix(23.222837,0,0,-23.222837,1505.6026,-1722.3488)">
		<path id="path13200" inkscape:connector-curvature="0" style="fill:#545454;" d="M0,0c0.701,0.149,2.12,1.074,2.094,1.789
			C2.085,2.067,2.073,2.218,2.063,2.497C2.054,2.799,1.896,3.001,1.655,3.172l0.197-0.134c0.495-0.339,0.669-0.592,0.694-1.295
			C2.577,0.878,0.853,0.082,0,0"/>
	</g>
	<g id="g13202" transform="matrix(23.222837,0,0,-23.222837,1504.7643,-1797.2796)">
		<path id="path13204" inkscape:connector-curvature="0" style="fill:#545454;" d="M0,0c0.072,0.045,0.06,0.156,0.164,0.155
			C0.189,0.058,0.18-0.082,0.083-0.142c-0.262-0.215-0.624-0.04-0.905,0.019c-0.075-0.134-0.169-0.33-0.35-0.35
			C-1.316-0.462-1.48-0.416-1.536-0.271c-0.068,0.118,0.01,0.239,0.062,0.344c-0.034,0.06-0.11,0.052-0.146,0.023
			C-1.771-0.058-1.614-0.279-1.85-0.38c-0.179-0.043-0.315,0.006-0.465,0.066l-0.007,0.048c0.14,0.028,0.41-0.032,0.395,0.192
			C-1.944,0.075-1.939,0.251-1.779,0.33C-1.143,0.358-0.604-0.2,0,0"/>
	</g>
</g>
<link  href="resource://abduction/browser.css" rel="stylesheet" xmlns=""></link>
<abduction-overlay  xmlns=""></abduction-overlay>
</svg>
