<?xml version="1.0" encoding="iso-8859-1"?>
<!-- Generator: Adobe Illustrator 20.1.0, SVG Export Plug-In . SVG Version: 6.00 Build 0)  -->
<svg version="1.1" id="Layer_1" xmlns="http://www.w3.org/2000/svg" xmlns:xlink="http://www.w3.org/1999/xlink" x="0px" y="0px"
	 viewBox="0 0 586.307 172.974" style="enable-background:new 0 0 586.307 172.974;" xml:space="preserve">
<g>
	<path style="fill:#545454;" d="M533.398,31.708c-3.146,0-3.8,1.493-3.8,3.805v1.166h4.476v4.638h-4.476v21.039h-6.801v-21.04
		h-2.812v-4.638h2.812v-1.824c0-5.141,3.319-7.955,8.954-7.955c1.159,0,1.982,0,2.973,0.171v4.638H533.398z"/>
	<path style="fill:#545454;" d="M575.846,140.05v-31.648c0-3.969-2.168-7.284-7.457-7.284c-2.983,0-5.139,0.832-6.961,2.645
		c0.496,1.493,0.663,2.985,0.663,6.131v30.155h-10.106V108.4c0-3.638-0.997-7.451-7.462-7.451c-3.306,0-4.472,0.5-6.285,1.332
		v37.769h-10.112V98.306c3.814-1.659,9.276-3.646,16.9-3.646c6.298,0,10.44,1.484,12.923,3.646
		c2.985-2.162,6.955-3.646,12.757-3.646c10.603,0,15.241,6.127,15.241,13.742v31.648H575.846z"/>
	<path style="fill:#545454;" d="M469.937,72.629c-3.821,0-6.794-0.83-8.781-1.826l1.486-3.98c1.484,0.665,3.474,1.333,6.29,1.333
		c4.311,0,5.637-1.991,5.637-5.302V61.19c-0.817,0.507-2.477,1.166-5.302,1.166c-6.291,0-9.116-3.146-9.116-8.283V36.678h6.801
		v17.059c0,2.324,0.829,4.145,4.136,4.145c1.659,0,2.664-0.499,3.481-0.828V36.678h6.801v24.681
		C481.369,69.481,476.556,72.629,469.937,72.629"/>
	<path style="fill:#545454;" d="M451.791,62.683c-4.96,0-7.448-2.649-7.448-6.953V41.316h-2.825v-4.638h2.825v-5.304l6.787-1.818
		v7.122h4.143v4.638h-4.143v13.751c0,2.316,1.164,2.977,2.811,2.977c0.83,0,1.499,0,2.328-0.163v4.303
		C455.6,62.355,454.274,62.683,451.791,62.683"/>
	<rect x="430.181" y="36.678" style="fill:#545454;" width="6.773" height="25.677"/>
	<path style="fill:#545454;" d="M416.139,62.854c-3.319,0-5.971-0.83-7.951-1.824l1.653-4.307c1.332,0.661,3.151,1.493,5.308,1.493
		c2.477,0,3.969-0.832,3.969-2.814c0-1.826-1.159-2.656-4.145-3.809c-4.972-1.991-5.968-4.977-5.968-7.791
		c0-4.138,3.158-7.622,8.787-7.622c3.146,0,5.462,0.83,7.288,1.82l-1.826,3.979c-0.824-0.5-2.638-1.326-4.639-1.326
		c-2.316,0-3.467,0.994-3.467,2.647c0,1.826,1.813,2.485,4.136,3.477c5.126,1.991,6.292,4.977,6.292,8.125
		C425.576,59.537,421.761,62.854,416.139,62.854"/>
	<path style="fill:#545454;" d="M406.025,41.316c-0.49-0.171-1.988-0.335-3.14-0.335c-1.165,0-2.168,0.165-2.824,0.335v21.039
		h-6.786V38.167c0.99-0.494,4.966-1.82,9.443-1.82c2.638,0,3.307,0.167,4.304,0.332L406.025,41.316z"/>
	<path style="fill:#545454;" d="M470.306,140.05v-30.981c0-4.307-1.829-7.451-7.451-7.451c-3.158,0-5.313,0.824-7.455,2.145v36.287
		h-10.106V80.413H455.4v16.569c2.644-1.161,6.452-1.993,9.938-1.993c11.104,0,15.065,6.629,15.065,13.411v31.65"/>
	<path style="fill:#545454;" d="M334.818,33.528c-2.483,0-3.648-1.493-3.648-3.315c0-1.818,1.165-3.314,3.648-3.314
		c2.322,0,3.642,1.497,3.642,3.314C338.46,32.036,337.141,33.528,334.818,33.528"/>
	<path style="fill:#545454;" d="M356.691,62.355h-6.459l-8.787-25.677h7.301l3.307,12.091c0.342,1.157,1.165,4.142,1.486,5.635
		h0.167c0.16-1.493,1.005-4.478,1.325-5.635l3.479-12.091h6.801L356.691,62.355z"/>
	<rect x="331.284" y="36.678" style="fill:#545454;" width="6.788" height="25.677"/>
	<path style="fill:#545454;" d="M433.715,33.528c-2.477,0-3.648-1.493-3.648-3.315c0-1.818,1.172-3.314,3.648-3.314
		c2.322,0,3.64,1.497,3.64,3.314C437.354,32.036,436.037,33.528,433.715,33.528"/>
	<path style="fill:#545454;" d="M319.546,62.355V44.298c0-1.824-0.817-3.644-4.137-3.644c-1.652,0-2.651,0.327-3.475,0.663v21.039
		h-6.792V38.167c2.816-1.157,6.292-1.987,10.601-1.987c7.791,0,10.609,3.811,10.609,8.118v18.058h-6.806V62.355z"/>
	<path style="fill:#545454;" d="M347.804,89.857c-3.814,0-5.804-2.493-5.804-5.308c0-2.811,1.989-5.293,5.804-5.293
		c3.64,0,5.789,2.482,5.789,5.293C353.593,87.364,351.443,89.857,347.804,89.857"/>
	<path style="fill:#545454;" d="M384.822,140.05v-31.648c0-3.638-1.493-7.453-7.958-7.453c-3.306,0-4.968,0.5-6.794,1.332v37.769
		h-10.1V98.306c3.81-1.659,9.773-3.646,17.389-3.646c13.253,0,17.564,6.458,17.564,13.586v31.804H384.822z"/>
	<path style="fill:#545454;" d="M288.777,62.854c-6.633,0-11.599-3.479-11.599-10.269V29.713h7.125v22.872
		c0,3.146,1.653,4.799,4.474,4.799c2.814,0,4.474-1.653,4.474-4.799V29.713h7.119v22.872
		C300.37,59.375,295.411,62.854,288.777,62.854"/>
	<rect x="342.742" y="95.485" style="fill:#545454;" width="10.121" height="44.565"/>
	<path style="fill:#545454;" d="M330.08,140.541c-8.781,0-12.254-4.968-12.254-12.09v-26.5h-4.975v-6.465h4.975v-8.947l10.098-2.813
		v11.76h7.13v6.465h-7.13v26.5c0,3.976,2.156,5.142,4.98,5.142c0.823,0,1.98,0,2.979-0.167v6.625
		C334.885,140.21,332.235,140.541,330.08,140.541"/>
	<path style="fill:#545454;" d="M303.737,140.541c-8.778,0-12.256-4.968-12.256-12.09v-26.5h-4.972v-6.465h4.972v-8.947
		l10.106-2.813v11.76h7.121v6.465h-7.121v26.5c0,3.976,2.149,5.142,4.972,5.142c0.832,0,1.983,0,2.979-0.167v6.625
		C308.543,140.21,305.891,140.541,303.737,140.541"/>
	<path style="fill:#545454;" d="M230.779,62.355V44.298c0-1.991-0.997-3.644-3.978-3.644c-1.657,0-2.652,0.492-3.644,0.994v20.708
		h-6.79V27.401h6.79v9.939c0.992-0.498,2.981-1.161,5.133-1.161c6.794,0,9.279,3.978,9.279,7.953v18.223H230.779z"/>
	<polygon style="fill:#545454;" points="206.092,35.021 206.092,62.355 198.968,62.355 198.968,35.021 192.341,35.021 
		192.341,29.713 212.884,29.713 212.884,35.021 	"/>
	<path style="fill:#545454;" d="M90.113,27.729v-15.24c7.457,1.824,12.927,4.307,18.723,7.459v14.243
		C103.041,31.542,96.747,29.219,90.113,27.729"/>
	<path style="fill:#545454;" d="M231.275,140.05l-21.209-35.784c-1.322-2.155-2.312-4.307-3.473-6.957h-0.169
		c0.332,2.81,0.5,5.133,0.5,7.286v35.455h-9.773V83.228h10.434l19.715,33.461c1.157,1.987,2.151,3.811,3.147,6.463h0.165
		c-0.333-2.818-0.333-4.803-0.333-6.79V83.228h9.775v56.823L231.275,140.05L231.275,140.05z"/>
	<path style="fill:#545454;" d="M79.181,104.433l0.997-31.147c0-1.985,1.488-3.475,3.313-3.475c1.991,0,3.311,1.49,3.311,3.475
		l1.161,31.147H79.181z"/>
	<path style="fill:#545454;" d="M83.49,163.897c-10.768,0-18.22-3.146-26.838-7.615c-7.615-3.976-15.077-6.458-24.852-6.458
		c-9.104,0-20.041,2.322-31.8,9.604c9.771-14.571,22.696-18.887,34.785-18.887c12.925,0,23.026,3.981,32.14,8.626
		c8.451,4.297,15.072,6.446,24.354,6.446c7.787,0,16.4-2.149,24.516-8.929C105.688,159.928,93.929,163.897,83.49,163.897"/>
	<path style="fill:#545454;" d="M505.704,36.18c-7.609,0-11.258,5.635-11.258,13.255c0,7.788,3.648,13.419,11.258,13.419
		c7.63,0,11.277-5.631,11.277-13.419C516.981,41.815,513.334,36.18,505.704,36.18 M505.704,58.375c-3.468,0-4.297-3.971-4.297-8.941
		c0-4.805,0.829-8.781,4.297-8.781c3.493,0,4.316,3.976,4.316,8.781C510.021,54.404,509.197,58.375,505.704,58.375z"/>
	<path style="fill:#545454;" d="M503.93,94.66c-6.953,0-12.269,1.987-15.239,3.308l2.31,6.135c2.656-1.332,6.792-2.818,11.104-2.818
		c5.299,0,8.78,1.486,8.78,7.286v2.485c-0.829-0.163-3.814-0.665-6.458-0.665c-10.273,0-18.561,5.308-18.561,15.906
		c0,8.614,5.796,15.072,18.394,15.072c6.959,0,12.596-1.319,16.396-3.14v-28C520.655,98.631,513.2,94.66,503.93,94.66
		 M510.884,134.416c-1.165,0.496-3.648,1.157-5.956,1.157c-5.315,0-8.956-3.479-8.956-9.611c0-5.789,3.159-9.769,9.283-9.769
		c2.819,0,4.639,0.496,5.629,0.663V134.416z"/>
	<path style="fill:#545454;" d="M388.952,48.932c0-8.107-4.137-12.752-11.098-12.752c-7.121,0-11.438,4.966-11.438,13.255
		c0,8.61,4.812,13.419,12.429,13.419c3.976,0,6.961-0.83,9.108-1.991l-1.653-4.474c-1.819,0.833-3.814,1.493-6.785,1.493
		c-3.158,0-5.971-1.322-6.474-6.29h15.911V48.932 M382.485,47.283h-9.604c0-4.977,1.988-6.794,4.813-6.794
		c2.649,0,4.791,1.653,4.791,6.463L382.485,47.283L382.485,47.283z"/>
	<path style="fill:#545454;" d="M422.751,94.66c-14.418,0-21.53,9.108-21.53,23.523c0,13.91,7.112,22.196,17.889,22.196
		c3.976,0,6.954-0.663,8.768-1.661v2.824c0,5.959-3.146,9.773-10.594,9.773c-4.96,0-8.118-1.332-10.77-2.484l-2.816,6.3
		c3.325,1.819,8.626,3.298,15.412,3.298c11.097,0,18.714-6.123,18.714-17.889V97.802C434.845,96.145,429.537,94.66,422.751,94.66
		 M427.877,132.266c-1.486,0.817-3.467,1.48-5.782,1.48c-7.122,0-10.28-5.296-10.28-15.563c0-10.604,3.319-17.234,10.762-17.234
		c2.155,0,3.814,0.169,5.301,1L427.877,132.266L427.877,132.266z"/>
	<path style="fill:#545454;" d="M263.359,48.932c0-8.107-4.146-12.752-11.097-12.752c-7.129,0-11.438,4.966-11.438,13.255
		c0,8.61,4.805,13.419,12.425,13.419c3.979,0,6.96-0.83,9.116-1.991l-1.657-4.474c-1.824,0.833-3.815,1.493-6.796,1.493
		c-3.146,0-5.96-1.322-6.458-6.29h15.906v-2.66 M256.892,47.283h-9.604c0-4.977,1.989-6.794,4.805-6.794
		c2.652,0,4.799,1.653,4.799,6.463V47.283z"/>
	<path style="fill:#545454;" d="M264.968,94.66c-12.587,0-18.881,9.606-18.881,23.186c0,13.423,6.294,23.027,18.881,23.027
		c12.596,0,18.887-9.604,18.887-23.027C283.855,104.266,277.564,94.66,264.968,94.66 M265.623,134.749
		c-6.96,0-8.114-8.947-8.114-16.902c0-8.118,1.153-17.059,8.114-17.059c6.959,0,8.12,8.941,8.12,17.059
		C273.743,125.801,272.582,134.749,265.623,134.749z"/>
	<path style="fill:#545454;" d="M90.113,31.045c-3.976-0.997-8.278-1.655-12.585-2.156V9.839c-4.639-0.663-9.444-0.99-14.412-0.99
		c-4.641,0-9.283,0.328-13.753,0.826v18.054c-4.307,0.502-8.449,1.33-12.423,2.32V12.162c-7.127,1.987-13.917,4.801-20.044,8.282
		v37.108l8.445,8.116l-2.483,41.742l-6.792,6.792v24.182l2.318,2.489c5.633-2.971,12.754-5.462,21.37-5.462
		c8.28,0,17.891,2.316,28.661,8.287v-30.812l-4.472-5.646V64.505l8.778-13.584l-3.646,13.083c2.487-0.323,4.97-0.488,7.622-0.488
		c8.616,0,16.565,1.486,23.357,4.142l8.781-8.122V37.508C103.041,34.854,96.747,32.698,90.113,31.045 M37.433,104.433l0.999-31.147
		c0-1.985,1.49-3.475,3.313-3.475c1.824,0,3.313,1.49,3.313,3.475l1.166,31.147H37.433z"/>
	<rect x="152.657" y="0" style="fill:#545454;" width="2.452" height="172.974"/>
</g>
</svg>
