<?xml version="1.0" encoding="utf-8"?>
<!-- Generator: Adobe Illustrator 21.0.0, SVG Export Plug-In . SVG Version: 6.00 Build 0)  -->
<svg version="1.1" id="Layer_1" xmlns="http://www.w3.org/2000/svg" xmlns:xlink="http://www.w3.org/1999/xlink" x="0px" y="0px"
	 viewBox="0 0 1356 431" style="enable-background:new 0 0 1356 431;" xml:space="preserve">
<style type="text/css">
	.st0{fill:#545454;}
	.st1{fill:#FDFDFF;}
</style>
<g id="JOBpJX_1_">
	<g>
		<path class="st0" d="M492.3,216c0,65,0,130,0,195c0,6.6,0.5,7.1,7.1,7.1c24.7,0,49.3,0,74,0c7.2,0,7.5-0.3,7.5-7.7
			c0-39,0.1-78-0.1-117c0-3.7,0.8-4.8,4.7-4.8c20.2,0.2,40.3,0.2,60.5,0c4,0,6.3,1.2,8.4,4.5c26.9,40.4,54,80.8,80.9,121.2
			c1.7,2.5,3.3,3.9,6.7,3.9c31-0.2,62-0.1,93-0.1c1.5,0,3.6,0.8,4.4-1.1c0.7-1.6-1-2.7-1.8-3.9c-30.7-44.9-61.3-89.9-92.2-134.7
			c-2.6-3.8-2.3-5,2-6.8c29.5-12,53.1-30.8,67.7-59.7c14.2-28.1,16.6-58.1,12.3-88.6c-5.2-36.1-22.5-65.1-53.8-84.9
			c-27.7-17.5-58.7-24-90.9-24.2c-61-0.4-122-0.1-183-0.1c-7.6,0-7.6,0-7.6,7.5C492.3,86.4,492.3,151.2,492.3,216z M977.7,216
			c0-65,0-130,0-195c0-6.5-0.3-6.9-6.7-6.9c-25,0-50,0-75,0c-6.4,0-6.9,0.4-6.9,6.8c0,130,0,260,0,390c0,6.7,0.6,7.2,7.1,7.2
			c24.7,0,49.3,0,74,0c7.3,0,7.5-0.3,7.5-7.7C977.7,345.6,977.7,280.8,977.7,216z M418.7,215.9c0-65,0-130,0-195
			c0-6.5-0.3-6.8-6.8-6.8c-25,0-50,0-75,0c-6.3,0-6.8,0.5-6.8,6.9c0,130,0,260,0,389.9c0,6.5,0.7,7.1,7.2,7.1c24.7,0,49.3,0,74,0
			c7,0,7.4-0.4,7.4-7.3C418.7,345.8,418.7,280.9,418.7,215.9z M256.2,286.8c0-41.5,0-83,0-124.5c0-6.1-0.5-6.6-6.6-6.6
			c-24.8,0-49.7,0-74.5,0c-6.3,0-6.8,0.4-6.8,6.7c0,82.6,0,165.3,0,247.9c0,6.4,0.8,7.2,7.2,7.2c24.7,0,49.3,0,74,0
			c6.3,0,6.7-0.5,6.7-6.9C256.2,369.4,256.2,328.1,256.2,286.8z"/>
		<path class="st0" d="M1171,424c-1.8-2.3-4.5-1.5-6.8-1.8c-50.9-6-96.2-25.2-135.8-57.8c-5.7-4.7-5.8-5.2-1.2-10.6
			c14.2-17,28.4-34,42.7-50.9c5-5.9,5-5.8,11-1.1c21.5,16.9,44.6,30.8,71.2,38.1c22.1,6.1,44.5,8.2,67.1,3.5
			c5.2-1.1,10.3-2.8,15-5.3c16.1-8.2,23.3-23.8,18.9-41.4c-2.4-9.4-9-15.4-17-20c-13.9-8.1-29.3-12.6-44.6-17
			c-23.8-6.8-48.1-12.1-71.3-20.9c-18.8-7.1-36.8-15.5-51.8-29.3c-19.4-17.9-27.7-40.9-29.5-66.8c-2.6-37.5,7.1-70.6,35-97
			c20.2-19.1,44.8-29.4,71.9-34.5c5.1-1,10.5-0.3,15.1-3.2c13.3,0,26.7,0,40,0c1,2.1,2.9,1.2,4.4,1.4c43.5,4.3,83,19.2,118.2,45.3
			c6.3,4.7,6.3,4.6,1.7,11.2c-12.8,18.4-25.6,36.8-38.2,55.3c-2.5,3.7-4.3,3.9-7.9,1.5c-20.3-13.5-41.5-25.2-65.2-31.5
			c-20.7-5.5-41.6-7.8-62.4-0.7c-24.9,8.5-33.6,35.2-17.7,54.4c4.8,5.9,11.5,9.4,18.4,12.4c19.8,8.6,40.7,13.5,61.4,19.1
			c26.2,7,52.1,14.9,75.8,28.6c27.1,15.6,45.2,37.7,50.8,69.1c0.4,2-0.5,4.4,1.8,5.9c0,12.7,0,25.3,0,38c-2.4,0.9-1.6,3.1-1.9,4.7
			c-5.8,32.5-22.4,58.1-50,76.1c-21,13.7-44.5,20.6-69.3,23.5c-2,0.2-4.4-0.6-5.9,1.7C1200.3,424,1185.7,424,1171,424z"/>
		<path class="st0" d="M12.8,418.2c-0.9-0.4-1.9-0.8-2.8-1.2c0-42.7,0-85.3,0-128c1.1-1.8,2.7-2,4.6-2c26.3,0.1,52.7,0.1,79,0
			c3.8,0,5.4,1.5,5.4,5.3c0,40.2-0.1,80.3,0,120.5c0,2.5-1.1,4-2.9,5.4C68.4,418.2,40.6,418.2,12.8,418.2z"/>
		<path class="st0" d="M492.3,216c0-64.8,0-129.6,0-194.5c0-7.4,0-7.5,7.6-7.5c61,0,122-0.3,183,0.1c32.2,0.2,63.2,6.7,90.9,24.2
			c31.3,19.8,48.6,48.7,53.8,84.9c4.4,30.6,1.9,60.5-12.3,88.6c-14.6,28.9-38.2,47.7-67.7,59.7c-4.4,1.8-4.6,3-2,6.8
			c30.8,44.8,61.5,89.8,92.2,134.7c0.8,1.2,2.5,2.3,1.8,3.9c-0.8,1.9-2.9,1.1-4.4,1.1c-31,0-62,0-93,0.1c-3.4,0-5-1.4-6.7-3.9
			c-27-40.4-54-80.7-80.9-121.2c-2.2-3.3-4.5-4.6-8.4-4.5c-20.2,0.2-40.3,0.2-60.5,0c-3.8,0-4.7,1.1-4.7,4.8c0.1,39,0.1,78,0.1,117
			c0,7.4-0.3,7.7-7.5,7.7c-24.7,0-49.3,0-74,0c-6.6,0-7.1-0.5-7.1-7.1C492.3,346,492.3,281,492.3,216z M636.1,93.9
			c-18.8,0-34.4,0.1-50.1-0.1c-3.5,0-4.4,1-4.4,4.5c-0.1,35.8-0.2,71.6-0.6,107.4c0,4.4,1.5,5.1,5.4,5.1c27.5-0.2,55,0,82.5-0.1
			c6.5,0,13-0.5,19.4-1.5c30.4-4.5,48.9-23,51.2-51.6c1.5-18.5-2.6-35.5-17.5-48.3c-10.8-9.2-23.8-13.1-37.5-14.6
			C667.4,92.8,650.2,94.4,636.1,93.9z"/>
		<path class="st0" d="M977.7,216c0,64.8,0,129.7,0,194.5c0,7.4-0.2,7.7-7.5,7.7c-24.7,0-49.3,0-74,0c-6.5,0-7.1-0.5-7.1-7.2
			c0-130,0-260,0-390c0-6.4,0.5-6.8,6.9-6.8c25,0,50,0,75,0c6.4,0,6.7,0.3,6.7,6.9C977.7,86,977.7,151,977.7,216z"/>
		<path class="st0" d="M418.7,215.9c0,65,0,130,0,195c0,6.9-0.4,7.3-7.4,7.3c-24.7,0-49.3,0-74,0c-6.5,0-7.2-0.6-7.2-7.1
			c0-130,0-260,0-389.9c0-6.4,0.5-6.9,6.8-6.9c25,0,50,0,75,0c6.5,0,6.8,0.3,6.8,6.8C418.7,85.9,418.7,150.9,418.7,215.9z"/>
		<path class="st0" d="M256.2,286.8c0,41.3,0,82.6,0,124c0,6.4-0.4,6.9-6.7,6.9c-24.7,0-49.3,0-74,0c-6.4,0-7.2-0.8-7.2-7.2
			c0-82.6,0-165.3,0-247.9c0-6.3,0.5-6.7,6.8-6.7c24.8,0,49.7,0,74.5,0c6.1,0,6.6,0.5,6.6,6.6C256.2,203.8,256.2,245.3,256.2,286.8z
			"/>
		<path class="st0" d="M12.8,418.2c27.8,0,55.6,0,83.4,0c-1.3,1.1-2.8,0.8-4.3,0.8c-24.9,0-49.9,0-74.8,0
			C15.6,419,14.1,419.3,12.8,418.2z"/>
		<path class="st1" d="M636.1,93.9c14,0.5,31.2-1,48.3,0.8c13.8,1.5,26.8,5.4,37.5,14.6c14.9,12.7,19,29.7,17.5,48.3
			c-2.3,28.7-20.9,47.1-51.2,51.6c-6.4,0.9-12.9,1.4-19.4,1.5c-27.5,0.2-55,0-82.5,0.1c-3.9,0-5.5-0.7-5.4-5.1
			c0.4-35.8,0.5-71.6,0.6-107.4c0-3.5,0.9-4.5,4.4-4.5C601.7,94,617.4,93.9,636.1,93.9z"/>
	</g>
</g>
</svg>
