<?xml version="1.0" encoding="iso-8859-1"?>
<!-- Generator: Adobe Illustrator 20.1.0, SVG Export Plug-In . SVG Version: 6.00 Build 0)  -->
<svg version="1.1" id="Layer_1" xmlns="http://www.w3.org/2000/svg" xmlns:xlink="http://www.w3.org/1999/xlink" x="0px" y="0px"
	 viewBox="0 0 246 410.88" style="enable-background:new 0 0 246 410.88;" xml:space="preserve">
<g>
	<g>
		<defs>
			<rect id="SVGID_1_" width="246" height="410.88"/>
		</defs>
		<clipPath id="SVGID_2_">
			<use xlink:href="#SVGID_1_"  style="overflow:visible;"/>
		</clipPath>
		<path style="clip-path:url(#SVGID_2_);fill:#53C6BA;" d="M40.539,401.761c8.289,0,16.574-3.164,22.895-9.484l164.273-164.27
			c12.641-12.644,12.641-33.148,0-45.793L63.434,17.945C50.789,5.3,30.289,5.3,17.645,17.945C5,30.589,5,51.089,17.645,63.734
			L159.02,205.113L17.645,346.488C5,359.132,5,379.632,17.645,392.277C23.965,398.597,32.254,401.761,40.539,401.761L40.539,401.761
			z M40.539,401.761"/>
		<path style="clip-path:url(#SVGID_2_);" d="M40.539,409.921c-10.828,0-21.008-4.218-28.664-11.875
			C4.219,390.39,0,380.211,0,369.382c0-10.828,4.219-21.007,11.875-28.668L147.48,205.109L11.875,69.503
			C4.219,61.847,0,51.668,0,40.839c0-10.828,4.219-21.007,11.875-28.664c15.805-15.808,41.523-15.804,57.328,0l164.274,164.27
			c7.656,7.656,11.871,17.836,11.871,28.664s-4.215,21.008-11.871,28.668L69.203,398.046
			C61.547,405.703,51.367,409.921,40.539,409.921L40.539,409.921z M40.539,16.621c-6.469,0-12.551,2.519-17.125,7.093
			c-4.574,4.575-7.094,10.657-7.094,17.125c0,6.469,2.52,12.551,7.094,17.125l141.375,141.375c3.188,3.188,3.188,8.352,0,11.539
			L23.414,352.257c-4.574,4.575-7.094,10.657-7.094,17.125c0,6.465,2.52,12.551,7.094,17.125c4.574,4.575,10.656,7.09,17.125,7.09
			c6.469,0,12.551-2.515,17.125-7.09l164.27-164.273c4.574-4.574,7.093-10.656,7.093-17.125c0-6.469-2.519-12.551-7.093-17.125
			L57.664,23.714C53.09,19.14,47.008,16.621,40.539,16.621L40.539,16.621z M40.539,16.621"/>
	</g>
	<path d="M204.273,201.031c-2.07,0-4.14-0.781-5.73-2.348l-11.398-11.234c-3.207-3.164-3.247-8.332-0.083-11.539
		c3.165-3.211,8.333-3.25,11.54-0.086L210,187.058c3.211,3.164,3.246,8.328,0.086,11.539
		C208.488,200.218,206.379,201.031,204.273,201.031L204.273,201.031z M204.273,201.031"/>
	<path d="M171.469,168.511c-2.067,0-4.137-0.785-5.727-2.351L39.785,42.015c-3.211-3.164-3.246-8.328-0.082-11.539
		c3.164-3.211,8.328-3.246,11.539-0.086l125.953,124.149c3.211,3.164,3.246,8.328,0.086,11.539
		C175.684,167.699,173.578,168.511,171.469,168.511L171.469,168.511z M171.469,168.511"/>
</g>
</svg>
