<?xml version="1.0" encoding="iso-8859-1"?>
<!-- Generator: Adobe Illustrator 20.1.0, SVG Export Plug-In . SVG Version: 6.00 Build 0)  -->
<svg version="1.1" id="Layer_1" xmlns="http://www.w3.org/2000/svg" xmlns:xlink="http://www.w3.org/1999/xlink" x="0px" y="0px"
	 viewBox="-49 141 512 512" style="enable-background:new -49 141 512 512;" xml:space="preserve">
<g>
	<polygon style="fill:#F1C346;" points="207,633.6 -38.801,542.903 -38.801,251.096 207,341.794 	"/>
	<polygon style="fill:#F1C346;" points="207,633.6 452.801,542.903 452.801,251.096 207,341.794 	"/>
	<polygon style="fill:#F1C346;" points="452.801,251.096 207,341.794 -38.801,251.096 207,160.4 	"/>
</g>
<g>
	<polygon style="fill:#FFE6B8;" points="137.645,446.888 27.494,406.245 27.494,275.477 137.645,316.12 	"/>
	<polygon style="fill:#FFE6B8;" points="247.797,275.477 137.645,316.12 27.494,275.477 137.645,234.833 	"/>
</g>
<g>
	<path style="fill:#545454;" d="M408.473,504.798l-106.072,39.139c-5.285,1.95-7.988,7.815-6.038,13.1
		c1.521,4.12,5.42,6.671,9.57,6.671c1.172,0,2.365-0.204,3.53-0.633l106.072-39.139c5.285-1.95,7.988-7.815,6.038-13.1
		C419.622,505.551,413.758,502.848,408.473,504.798z"/>
	<path style="fill:#545454;" d="M273.237,554.699l-4.492,1.657c-5.284,1.95-7.988,7.815-6.038,13.099
		c1.52,4.12,5.42,6.672,9.57,6.672c1.172,0,2.365-0.204,3.53-0.633l4.492-1.657c5.284-1.95,7.988-7.815,6.038-13.099
		C284.387,555.452,278.522,552.749,273.237,554.699z"/>
	<path style="fill:#545454;" d="M408.473,463.238l-83.825,30.93c-5.285,1.95-7.988,7.815-6.038,13.1
		c1.521,4.12,5.42,6.671,9.57,6.671c1.172,0,2.365-0.204,3.53-0.633l83.825-30.93c5.285-1.95,7.988-7.815,6.038-13.1
		C419.622,463.99,413.758,461.29,408.473,463.238z"/>
	<path style="fill:#545454;" d="M408.473,422.108l-83.825,30.93c-5.285,1.95-7.988,7.815-6.038,13.1
		c1.521,4.12,5.42,6.671,9.57,6.671c1.172,0,2.365-0.204,3.53-0.633l83.825-30.93c5.285-1.95,7.988-7.815,6.038-13.1
		C419.622,422.861,413.758,420.16,408.473,422.108z"/>
	<path style="fill:#545454;" d="M456.332,241.527l-245.801-90.696c-2.278-0.84-4.783-0.84-7.061,0l-245.801,90.696l-0.002,0.008
		c-0.805,0.298-1.579,0.691-2.299,1.193c-2.737,1.907-4.368,5.032-4.368,8.367v291.806c0,4.271,2.661,8.09,6.668,9.569
		l245.801,90.696c1.146,0.423,2.341,0.63,3.53,0.63c1.201,0,2.396-0.218,3.528-0.636l0.004,0.006l245.801-90.696
		c4.007-1.479,6.668-5.297,6.668-9.569V251.096C463,246.825,460.339,243.006,456.332,241.527z M37.693,290.193l89.753,33.118
		v108.943l-89.753-33.118V290.193z M137.645,305.249l-80.688-29.772l80.688-29.773l80.688,29.773L137.645,305.249z M207,171.272
		l216.337,79.825L207,330.921l-40.001-14.76l84.329-31.117c4.007-1.479,6.668-5.297,6.668-9.569c0-4.271-2.661-8.09-6.668-9.569
		l-110.151-40.644c-2.278-0.84-4.782-0.84-7.062,0L27.383,264.646l-36.72-13.55L207,171.272z M-28.602,265.731l45.896,16.936
		v123.578c0,4.271,2.661,8.09,6.668,9.569l110.151,40.645c1.146,0.423,2.341,0.63,3.53,0.63c2.058,0,4.098-0.623,5.833-1.832
		c2.736-1.907,4.367-5.032,4.367-8.367V330.838l48.956,18.064v270.063l-225.402-83.169V265.731z M217.199,618.964V348.902
		l225.402-83.17v270.064L217.199,618.964z"/>
</g>
</svg>
