<?xml version="1.0" encoding="iso-8859-1"?>
<!-- Generator: Adobe Illustrator 20.1.0, SVG Export Plug-In . SVG Version: 6.00 Build 0)  -->
<svg version="1.1" id="Layer_1" xmlns="http://www.w3.org/2000/svg" xmlns:xlink="http://www.w3.org/1999/xlink" x="0px" y="0px"
	 viewBox="-49 141 512 512" style="enable-background:new -49 141 512 512;" xml:space="preserve">
<path style="fill:#D6ECEE;" d="M306.479,540.412h48.902c53.404,0,96.696-43.293,96.696-96.696c0-53.405-43.292-96.697-96.696-96.697
	c-3.307,0-6.575,0.17-9.798,0.495c0.221-3.122,0.475-6.236,0.475-9.413c0-73.071-59.237-132.308-132.308-132.308
	c-66.95,0-122.14,49.774-130.943,114.308c-3.45-0.324-6.936-0.528-10.471-0.528c-60.983,0-110.42,49.436-110.42,110.42
	s49.437,110.42,110.42,110.42h44.534"/>
<g>
	<path style="fill:#545454;" d="M356.967,336.112c-1.069-78.061-64.902-141.239-143.213-141.239
		c-34.835,0-68.396,12.672-94.498,35.682c-23.296,20.535-39.232,47.977-45.543,78.106c-0.461-0.005-0.918-0.009-1.374-0.009
		C5.434,308.653-49,363.085-49,429.992S5.434,551.331,72.34,551.331h84.743c6.029,0,10.919-4.888,10.919-10.919
		c0-6.031-4.89-10.919-10.919-10.919H72.34c-54.866,0-99.502-44.636-99.502-99.501s44.636-99.501,99.502-99.501
		c2.923,0,6.013,0.157,9.448,0.48c5.822,0.545,11.049-3.596,11.842-9.396c3.932-28.82,18.161-55.327,40.067-74.638
		c22.111-19.492,50.542-30.226,80.056-30.226c66.935,0,121.389,54.455,121.389,121.389c0,2.41-0.179,4.894-0.368,7.524l-0.081,1.118
		c-0.227,3.212,0.975,6.361,3.287,8.604c2.309,2.243,5.488,3.351,8.697,3.03c2.904-0.293,5.834-0.44,8.708-0.44
		c47.297,0,85.778,38.48,85.778,85.778c0,47.297-38.48,85.777-85.778,85.777h-89.111c-6.029,0-10.919,4.888-10.919,10.919
		c0,6.031,4.89,10.919,10.919,10.919h89.111c59.339,0,107.616-48.275,107.616-107.615C463,384.906,415.58,336.962,356.967,336.112z"
		/>
	<path style="fill:#545454;" d="M213.755,268.031c6.031,0,10.919-4.888,10.919-10.919s-4.888-10.919-10.919-10.919
		c-45.658,0-84.742,34.121-90.914,79.367c-0.815,5.975,3.369,11.48,9.343,12.295c0.501,0.068,0.998,0.102,1.489,0.102
		c5.375,0,10.059-3.97,10.804-9.444C149.18,294.032,178.963,268.031,213.755,268.031z"/>
	<path style="fill:#545454;" d="M256.131,480.115c3.002,0,5.99-1.229,8.148-3.645c4.017-4.498,3.628-11.399-0.869-15.418
		l-39.718-35.48c-6.847-6.12-17.177-6.119-24.027-0.001l-39.718,35.482c-4.498,4.017-4.886,10.92-0.869,15.418
		c4.017,4.496,10.919,4.887,15.418,0.869l26.264-23.462V588.21c0,6.031,4.888,10.919,10.919,10.919
		c6.029,0,10.919-4.888,10.919-10.919V453.876l26.265,23.463C250.944,479.2,253.542,480.115,256.131,480.115z"/>
</g>
</svg>
