<?xml version="1.0" encoding="iso-8859-1"?>
<!-- Generator: Adobe Illustrator 20.1.0, SVG Export Plug-In . SVG Version: 6.00 Build 0)  -->
<svg version="1.1" id="Layer_1" xmlns="http://www.w3.org/2000/svg" xmlns:xlink="http://www.w3.org/1999/xlink" x="0px" y="0px"
	 viewBox="0 0 285.374 92.108" style="enable-background:new 0 0 285.374 92.108;" xml:space="preserve">
<g>
	<path style="fill:#545454;" d="M213.575,24.127c17.153-0.091,30.763,8.254,35.022,22.024c7.466,24.144-6.764,48.599-39.608,45.554
		c-17.68-1.639-28.854-11.41-31.445-25.736C173.156,41.716,188.187,24.261,213.575,24.127z M225.625,58.263
		c-0.04-7.422-3.127-12.547-8.565-14.171c-4.557-1.36-8.653-0.424-11.739,3.163c-4.703,5.465-4.673,11.858-2.471,18.257
		c1.502,4.363,4.705,7.149,9.531,7.563C220.465,73.77,225.678,67.921,225.625,58.263z"/>
	<path style="fill:#545454;" d="M134.628,92.108c-17.436-0.021-30.673-8.542-35.139-22.62
		c-8.274-26.083,11.786-48.739,39.911-45.076c17.656,2.299,28.718,11.455,31.311,25.913
		C175.067,74.611,159.931,92.138,134.628,92.108z M146.642,58.787c-0.024-7.803-3.063-12.981-8.464-14.668
		c-4.532-1.416-8.681-0.513-11.78,3.038c-4.723,5.414-4.776,11.812-2.599,18.231c1.556,4.586,4.897,7.383,9.953,7.688
		c5.254,0.317,9.401-2.157,11.485-6.935C146.307,63.687,146.864,61.104,146.642,58.787z"/>
	<path style="fill:#545454;" d="M66.35,24.121c10.476,0.393,20.274,3.937,27.343,13.403c1.969,2.637,2.533,4.36-1.274,5.71
		c-2.8,0.993-5.429,2.503-8.066,3.911c-3.934,2.099-6.943,3.988-11.329-0.717c-4.813-5.162-13.192-2.41-15.997,4.203
		c-2.024,4.772-2.085,9.755-0.283,14.609c3.178,8.564,12.993,10.239,18.571,3.02c1.713-2.217,2.817-2.51,5.137-1.22
		c4.208,2.34,8.509,4.552,12.921,6.472c2.708,1.178,2.505,2.463,1.139,4.49c-3.55,5.267-8.206,9.087-14.17,11.33
		c-8.521,3.205-17.21,3.661-25.952,1.29c-16.268-4.411-25.701-19.108-23.486-36.289C33.357,35.306,46.067,24.206,66.35,24.121z"/>
	<path style="fill:#545454;" d="M260.616,45.461c0-13.642,0.175-27.288-0.11-40.924c-0.081-3.905,1.115-4.706,4.702-4.51
		c5.64,0.308,11.311,0.171,16.964,0.041c2.313-0.053,3.194,0.565,3.187,3.052c-0.077,28.282-0.088,56.565,0.014,84.847
		c0.01,2.835-1.12,3.256-3.526,3.202c-5.82-0.132-11.653-0.231-17.464,0.033c-3.079,0.14-3.89-0.703-3.849-3.817
		C260.721,73.412,260.616,59.436,260.616,45.461z"/>
	<path style="fill:#545454;" d="M16.121,90.102c-5.878-0.049-10.442-4.574-10.459-10.369c-0.017-5.713,4.7-10.527,10.365-10.578
		c6.025-0.054,10.644,4.644,10.565,10.743C26.514,85.85,22.099,90.152,16.121,90.102z"/>
</g>
</svg>
