<?xml version="1.0" encoding="iso-8859-1"?>
<!-- Generator: Adobe Illustrator 20.1.0, SVG Export Plug-In . SVG Version: 6.00 Build 0)  -->
<svg version="1.1" id="Layer_1" xmlns="http://www.w3.org/2000/svg" xmlns:xlink="http://www.w3.org/1999/xlink" x="0px" y="0px"
	 viewBox="0 0 320.29 321.739" style="enable-background:new 0 0 320.29 321.739;" xml:space="preserve">
<circle style="fill:#D5ECEF;stroke:#B9E0E5;stroke-width:10;stroke-miterlimit:10;" cx="159.993" cy="161.959" r="151.5"/>
<g>
	<path style="fill:#F5C528;" d="M201.274,234.074h-85.513c-5.236,0-9.48-4.245-9.48-9.48v-60.362c0-5.236,4.245-9.48,9.48-9.48
		h85.513c5.236,0,9.48,4.245,9.48,9.48v60.362C210.753,229.829,206.51,234.074,201.274,234.074L201.274,234.074z M201.274,234.074"
		/>
	<path style="fill:#EFEFEF;" d="M171.931,183.513c0-7.407-6.006-13.413-13.414-13.413c-7.408,0-13.413,6.006-13.413,13.413
		c0,4.525,2.242,8.524,5.674,10.953v24.258h15.478v-24.258C169.687,192.037,171.931,188.039,171.931,183.513L171.931,183.513z
		 M171.931,183.513"/>
	<path style="fill:#F5C528;" d="M186.249,136.953c-5.343,0-9.673-4.332-9.673-9.673v-2.148c0-9.887-7.823-18.169-17.708-18.357
		c-10.117-0.191-18.407,7.981-18.407,18.054v29.923h-19.345v-29.446c0-20.592,16.442-37.679,37.034-37.879
		c20.793-0.202,37.773,16.655,37.773,37.402v2.451C195.92,132.622,191.59,136.953,186.249,136.953L186.249,136.953z
		 M186.249,136.953"/>
	<path style="fill:#555454;" d="M201.274,150.882h-56.945v-26.053c0-3.833,1.512-7.426,4.258-10.121
		c2.746-2.693,6.366-4.119,10.206-4.064c7.671,0.146,13.912,6.645,13.912,14.488v2.148c0,7.466,6.075,13.543,13.543,13.543
		c7.466,0,13.542-6.077,13.542-13.543v-2.451c0-11.084-4.349-21.495-12.245-29.314c-7.796-7.721-18.089-11.959-29.023-11.959
		c-0.137,0-0.275,0.002-0.412,0.002c-22.533,0.219-40.866,18.948-40.866,41.749v25.576h-1.483c-7.36,0-13.35,5.99-13.35,13.35
		v60.362c0,7.36,5.99,13.35,13.35,13.35h85.513c7.36,0,13.35-5.99,13.35-13.35v-60.362
		C214.622,156.871,208.634,150.882,201.274,150.882L201.274,150.882z M124.983,125.305c0-18.575,14.894-33.833,33.203-34.01
		c0.112-0.001,0.222-0.001,0.334-0.001c8.881,0,17.244,3.444,23.581,9.717c6.416,6.355,9.95,14.813,9.95,23.817v2.451
		c0,3.199-2.603,5.804-5.804,5.804c-3.199,0-5.804-2.605-5.804-5.804v-2.148c0-12.031-9.647-22-21.503-22.225
		c-5.941-0.115-11.533,2.117-15.772,6.277c-4.24,4.162-6.577,9.717-6.577,15.647v26.053h-11.608V125.305z M206.884,224.594
		c0,3.093-2.516,5.611-5.61,5.611h-85.513c-3.093,0-5.611-2.517-5.611-5.611v-60.362c0-3.093,2.518-5.611,5.611-5.611h85.513
		c3.093,0,5.611,2.518,5.611,5.611v60.362H206.884z M206.884,224.594"/>
	<g>
		<defs>
			<rect id="SVGID_1_" x="102.411" y="83.435" width="127.731" height="154.87"/>
		</defs>
		<clipPath id="SVGID_2_">
			<use xlink:href="#SVGID_1_"  style="overflow:visible;"/>
		</clipPath>
		<path style="clip-path:url(#SVGID_2_);fill:#555454;" d="M158.517,166.231c-9.529,0-17.283,7.753-17.283,17.282
			c0,4.894,2.089,9.544,5.675,12.799v22.412c0,2.136,1.733,3.869,3.869,3.869h15.478c2.138,0,3.869-1.733,3.869-3.869v-22.412
			c3.585-3.255,5.676-7.905,5.676-12.799C175.801,173.984,168.047,166.231,158.517,166.231L158.517,166.231z M164.02,191.308
			c-1.025,0.726-1.634,1.904-1.634,3.16v20.388h-7.739v-20.388c0-1.256-0.608-2.434-1.633-3.16c-2.531-1.79-4.042-4.704-4.042-7.795
			c0-5.262,4.282-9.544,9.545-9.544c5.262,0,9.544,4.281,9.544,9.544C168.062,186.604,166.551,189.518,164.02,191.308
			L164.02,191.308z M164.02,191.308"/>
		<path style="clip-path:url(#SVGID_2_);fill:#555454;" d="M227.894,148.789l-13.515-7.803c-1.851-1.069-4.217-0.434-5.286,1.416
			c-1.069,1.851-0.436,4.217,1.416,5.286l13.515,7.802c0.61,0.352,1.275,0.52,1.932,0.52c1.337,0,2.637-0.694,3.354-1.935
			C230.379,152.223,229.745,149.857,227.894,148.789L227.894,148.789z M227.894,148.789"/>
		<path style="clip-path:url(#SVGID_2_);fill:#555454;" d="M212.448,132.729c0.655,0,1.321-0.168,1.93-0.52l13.516-7.802
			c1.851-1.069,2.485-3.435,1.416-5.286c-1.069-1.851-3.435-2.485-5.286-1.416l-13.516,7.802c-1.851,1.069-2.484,3.435-1.416,5.286
			C209.809,132.035,211.111,132.729,212.448,132.729L212.448,132.729z M212.448,132.729"/>
	</g>
</g>
<g>
</g>
<g>
</g>
<g>
</g>
<g>
</g>
<g>
</g>
<g>
</g>
</svg>
