<?xml version="1.0" encoding="iso-8859-1"?>
<!-- Generator: Adobe Illustrator 20.1.0, SVG Export Plug-In . SVG Version: 6.00 Build 0)  -->
<svg version="1.1" id="Layer_1" xmlns="http://www.w3.org/2000/svg" xmlns:xlink="http://www.w3.org/1999/xlink" x="0px" y="0px"
	 viewBox="-49 141 512 512" style="enable-background:new -49 141 512 512;" xml:space="preserve">
<polygon style="fill:#F3C438;" points="328.627,357.518 226.945,357.518 284.051,151.199 164.335,151.199 85.373,436.481 
	187.055,436.481 129.949,642.8 "/>
<g>
	<path style="fill:#545454;" d="M129.944,653c-1.461,0-2.937-0.314-4.332-0.969c-4.499-2.113-6.819-7.161-5.493-11.952
		l53.53-193.399H85.373c-3.186,0-6.188-1.488-8.117-4.024c-1.929-2.534-2.562-5.826-1.712-8.897l78.962-285.281
		c1.223-4.418,5.244-7.478,9.829-7.478h119.716c3.185,0,6.188,1.488,8.118,4.024c1.929,2.535,2.562,5.826,1.712,8.897
		l-53.53,193.399h88.276c3.799,0,7.283,2.11,9.041,5.478c1.757,3.368,1.5,7.432-0.671,10.55L138.318,648.629
		C136.358,651.444,133.194,653,129.944,653z M98.779,426.281h88.276c3.186,0,6.188,1.488,8.117,4.024
		c1.929,2.534,2.562,5.826,1.712,8.897l-41.176,148.762l153.386-220.246h-82.149c-3.185,0-6.188-1.488-8.118-4.024
		c-1.929-2.534-2.562-5.826-1.712-8.897l53.532-193.399h-98.552L98.779,426.281z"/>
	<path style="fill:#545454;" d="M212.106,304.394c-0.909,0-1.832-0.122-2.749-0.378c-5.425-1.515-8.595-7.141-7.08-12.566
		l1.423-5.093c1.515-5.425,7.145-8.594,12.566-7.08c5.425,1.515,8.596,7.141,7.08,12.566l-1.423,5.093
		C220.664,301.443,216.567,304.394,212.106,304.394z"/>
	<path style="fill:#545454;" d="M222.075,268.698c-0.909,0-1.832-0.122-2.749-0.378c-5.425-1.516-8.596-7.141-7.08-12.566
		l21.649-77.515c1.515-5.425,7.146-8.591,12.566-7.08c5.425,1.516,8.596,7.141,7.08,12.566l-21.649,77.515
		C230.634,265.747,226.536,268.698,222.075,268.698z"/>
</g>
</svg>
