<?xml version="1.0" encoding="iso-8859-1"?>
<!-- Generator: Adobe Illustrator 20.1.0, SVG Export Plug-In . SVG Version: 6.00 Build 0)  -->
<svg version="1.1" id="Layer_1" xmlns="http://www.w3.org/2000/svg" xmlns:xlink="http://www.w3.org/1999/xlink" x="0px" y="0px"
	 viewBox="-49 141 512 512" style="enable-background:new -49 141 512 512;" xml:space="preserve">
<path style="fill:#53C6BA;" d="M13.806,633.785l142.398-142.398l-43.579-43.579L-29.773,590.206
	c-12.034,12.034-12.034,31.545,0,43.579l0,0C-17.74,645.819,1.772,645.819,13.806,633.785z"/>
<g>
	<path style="fill:#545454;" d="M-49,611.997c0,10.955,4.265,21.255,12.014,29.001c7.995,7.995,18.498,11.993,29.001,11.993
		s21.005-3.998,29.001-11.993c0.001,0,0.001,0,0.001,0L163.416,498.6c3.983-3.984,3.983-10.442,0-14.425l-14.578-14.578
		l21.924-21.924c31.039,27.654,71.92,44.487,116.664,44.487c96.812,0,175.575-78.762,175.575-175.575
		s-78.762-175.576-175.574-175.576s-175.575,78.763-175.575,175.575c0,44.744,16.834,85.624,44.488,116.664l-21.924,21.924
		l-14.578-14.578c-3.985-3.983-10.441-3.983-14.425,0L-36.986,582.994C-44.733,590.74-48.999,601.039-49,611.997z M287.426,471.761
		c-85.565,0-155.177-69.611-155.177-155.176s69.612-155.177,155.177-155.177s155.177,69.612,155.177,155.177
		C442.603,402.15,372.991,471.761,287.426,471.761z M-28.601,611.995c0-5.507,2.145-10.684,6.038-14.578l135.187-135.186
		l29.155,29.155L6.594,626.573h0.001c-8.041,8.039-21.119,8.038-29.156,0C-26.456,622.679-28.601,617.502-28.601,611.995z"/>
	<path style="fill:#545454;" d="M404.692,323.024c0.115-2.13,0.173-4.297,0.173-6.44c0-5.633,4.566-10.199,10.199-10.199
		s10.199,4.566,10.199,10.199c0,2.508-0.068,5.046-0.203,7.54c-0.294,5.437-4.795,9.649-10.176,9.649
		c-0.186,0-0.372-0.005-0.559-0.015C408.702,333.456,404.388,328.65,404.692,323.024z"/>
	<path style="fill:#545454;" d="M287.426,434.024c44.357,0,84.459-24.559,104.654-64.091c2.563-5.016,8.704-7.006,13.723-4.443
		c5.016,2.563,7.006,8.706,4.443,13.723c-23.699,46.391-70.761,75.21-122.819,75.21c-5.633,0-10.199-4.566-10.199-10.199
		S281.793,434.024,287.426,434.024z"/>
</g>
</svg>
