<?xml version="1.0" encoding="iso-8859-1"?>
<!-- Generator: Adobe Illustrator 20.1.0, SVG Export Plug-In . SVG Version: 6.00 Build 0)  -->
<svg version="1.1" id="Layer_1" xmlns="http://www.w3.org/2000/svg" xmlns:xlink="http://www.w3.org/1999/xlink" x="0px" y="0px"
	 viewBox="0 0 1412.895 1413.483" style="enable-background:new 0 0 1412.895 1413.483;" xml:space="preserve">
<g>
	<path style="fill:#545454;" d="M730.17,1413.483C312.186,1407.244-5.059,1093.69,0,698.084
		C2.504,502.3,75.062,334.444,215.712,198.292C352.124,66.243,517.285-0.314,707.104,0.001
		c195.079,0.323,363.551,70.296,500.864,208.875c140.184,141.478,208.951,313.996,204.745,513.168
		c-4.089,193.646-77.193,359.35-216.699,493.618C1056.511,1349.929,887.766,1413.557,730.17,1413.483z M779.894,581.399
		c1.515,1.547,1.172,3.303,1.34,4.917c2.423,23.211,2.149,46.41,1.245,69.733c-0.909,23.445-3.092,46.735-5.459,70.017
		c-3.081,30.3-7.327,60.474-12.353,90.514c-6.64,39.691-11.646,79.616-14.117,119.726c-1.486,24.135-1.609,48.509,0.723,72.732
		c1.085,11.268,2.355,22.505,4.676,33.601c1.687,8.066,2.855,9.266,10.999,10.01c16.128,1.473,31.851-1.611,47.521-4.694
		c13.146-2.587,25.752-6.875,36.824-14.681c13.916-9.811,22.285-23.051,21.942-40.383c-0.383-19.31-0.961-38.599-0.544-57.924
		c0.43-19.95,1.365-39.871,2.803-59.758c2.759-38.146,5.987-76.257,10.619-114.232c4.171-34.199,8.344-68.397,12.584-102.587
		c3.975-32.052,7.473-64.153,10.524-96.306c2.592-27.316,4.336-54.691,5.789-82.084c1.666-31.423,1.569-62.858,0.143-94.296
		c-0.117-2.573-1.107-3.488-3.313-3.985c-16.747-3.773-33.569-4.819-50.535-1.576c-27.899,5.333-50.92,19.782-71.704,38.384
		c-20.751,18.572-37.277,40.741-53.56,63.111c-26.272,36.094-49.216,74.427-74.707,111.046
		c-15.609,22.422-31.617,44.528-49.879,64.934c-3.36,3.755-5.691,3.227-8.409,0.079c-3.37-3.903-6.53-7.987-9.814-11.966
		c-1.038-1.258-1.137-2.656-1.106-4.208c0.334-16.647,0.96-33.297,0.845-49.942c-0.321-46.461,2.378-92.949-0.756-139.381
		c-1.961-29.057-7.599-57.285-19.381-84.201c-4.247-9.703-11.015-15.068-20.816-17.422c-10.845-2.604-21.819-2.431-32.768-0.979
		c-21.66,2.873-38.392,12.74-46.642,33.997c-33.687,86.799-67.314,173.622-99.533,260.982
		c-7.821,21.205-14.746,42.809-23.818,63.468c-13.92,31.7-31.639,61.516-48.615,91.667c-13.797,24.505-27.411,49.107-36.727,75.764
		c-6.392,18.287-10.442,37.067-5.498,56.312c6.11,23.784,15.867,32.432,37.208,35.051c22.903,2.811,44.725-1.187,65.606-10.825
		c16.451-7.594,27.671-19.627,33.045-37.21c4.382-14.339,7.965-28.847,10.914-43.521c5.055-25.16,10.515-50.148,23.258-72.878
		c10.491-18.714,18.146-38.436,21.032-59.903c1.059-7.874,2.884-15.727,6.704-22.876c2.278-4.263,4.967-7.179,10.719-7.308
		c9.669-0.218,15.177,4.89,19.178,12.561c3.991,7.652,5.361,16.052,6.115,24.541c2.408,27.125-1.582,53.81-5.54,80.508
		c-1.03,6.946-3.692,13.646-1.877,21.023c6.477,26.326,28.245,34.655,49.695,37.398c8.229,1.052,16.48-1.349,24.449-3.665
		c21.776-6.33,38.087-20.463,52.94-36.883c6.354-7.024,9.645-14.86,10.555-24.141c0.712-7.257,1.342-14.753,6.01-20.847
		c25.254-32.973,47.078-68.224,68.757-103.559c22.474-36.632,45.268-73.029,72.518-106.394
		C772.926,588.909,775.91,584.712,779.894,581.399z M917.631,702.162c0.053,27.06,1.754,47.405,6.613,67.432
		c17.242,71.065,74.567,111.499,147.413,104.2c24.028-2.408,47.828-6.698,71.823-8.984c36.149-3.444,65.618-37.327,70.233-66.045
		c1.866-11.614,0.971-22.921-7.354-32.483c-2.116-2.431-3.776-2.796-6.728-1.445c-19.064,8.725-38.482,16.578-58.413,23.137
		c-15.352,5.052-30.982,9.254-47.085,10.366c-18.9,1.305-34.922-6.698-49.284-18.264c-11.896-9.579-17.825-28.826,3.348-40.345
		c16.355-8.898,32.376-18.414,48.802-27.174c37.274-19.88,74.874-39.154,112.009-59.287c21.243-11.517,41.594-24.593,58.733-41.965
		c4.655-4.718,9.583-9.446,11.402-16.133c5.231-19.229,8.474-38.735,6.203-58.725c-6.083-53.532-33.508-92.508-82.394-114.626
		c-37.385-16.915-76.944-16.253-115.252-3.477c-69.726,23.254-117.109,71.352-143.193,139.288
		C925.959,605.945,919.056,656.987,917.631,702.162z M124.76,891.295c-0.095,21.616,4.026,36.104,13.807,48.669
		c16.954,21.779,45.172,23.202,63.156,3.311c21.24-23.493,22.372-63.964,2.479-88.605c-18.551-22.979-48.168-22.57-66.055,0.947
		C128.829,867.867,124.812,881.857,124.76,891.295z"/>
	<path style="fill:#FEFEFE;" d="M779.894,581.399c-3.984,3.313-6.968,7.51-10.193,11.458
		c-27.25,33.365-50.044,69.763-72.518,106.394c-21.679,35.336-43.503,70.586-68.757,103.559c-4.667,6.094-5.298,13.59-6.01,20.847
		c-0.91,9.281-4.201,17.117-10.555,24.141c-14.853,16.42-31.164,30.553-52.94,36.883c-7.968,2.317-16.22,4.717-24.449,3.665
		c-21.451-2.743-43.218-11.072-49.695-37.398c-1.815-7.378,0.847-14.077,1.877-21.023c3.958-26.698,7.949-53.382,5.54-80.508
		c-0.754-8.489-2.124-16.889-6.115-24.541c-4.001-7.671-9.509-12.779-19.178-12.561c-5.752,0.13-8.441,3.046-10.719,7.308
		c-3.82,7.149-5.646,15.002-6.704,22.876c-2.886,21.467-10.541,41.189-21.032,59.903c-12.743,22.73-18.203,47.718-23.258,72.878
		c-2.948,14.674-6.531,29.182-10.914,43.521c-5.374,17.583-16.594,29.617-33.045,37.21c-20.881,9.638-42.703,13.636-65.606,10.825
		c-21.341-2.619-31.098-11.266-37.208-35.051c-4.943-19.244-0.893-38.024,5.498-56.312c9.317-26.657,22.931-51.259,36.727-75.764
		c16.975-30.151,34.694-59.967,48.615-91.667c9.072-20.659,15.997-42.263,23.818-63.468c32.219-87.36,65.846-174.182,99.533-260.982
		c8.25-21.257,24.982-31.124,46.642-33.997c10.949-1.452,21.923-1.626,32.768,0.979c9.801,2.354,16.569,7.719,20.816,17.422
		c11.782,26.916,17.42,55.145,19.381,84.201c3.134,46.432,0.435,92.92,0.756,139.381c0.115,16.645-0.511,33.295-0.845,49.942
		c-0.031,1.552,0.068,2.95,1.106,4.208c3.284,3.978,6.444,8.063,9.814,11.966c2.719,3.148,5.049,3.676,8.409-0.079
		c18.262-20.405,34.27-42.511,49.879-64.934c25.491-36.618,48.435-74.951,74.707-111.046c16.283-22.37,32.809-44.539,53.56-63.111
		c20.784-18.602,43.806-33.052,71.704-38.384c16.965-3.243,33.788-2.197,50.535,1.576c2.206,0.497,3.196,1.412,3.313,3.985
		c1.426,31.437,1.523,62.873-0.143,94.296c-1.453,27.392-3.196,54.767-5.789,82.084c-3.051,32.153-6.549,64.254-10.524,96.306
		c-4.24,34.19-8.413,68.388-12.584,102.587c-4.631,37.975-7.86,76.086-10.619,114.232c-1.438,19.887-2.372,39.808-2.803,59.758
		c-0.417,19.325,0.161,38.614,0.544,57.924c0.343,17.332-8.026,30.573-21.942,40.383c-11.072,7.806-23.678,12.094-36.824,14.681
		c-15.671,3.084-31.393,6.168-47.521,4.694c-8.143-0.744-9.312-1.944-10.999-10.01c-2.321-11.096-3.591-22.334-4.676-33.601
		c-2.332-24.224-2.209-48.597-0.723-72.732c2.47-40.11,7.476-80.035,14.117-119.726c5.026-30.04,9.271-60.214,12.353-90.514
		c2.368-23.282,4.55-46.572,5.459-70.017c0.905-23.323,1.178-46.522-1.245-69.733C781.066,584.702,781.409,582.946,779.894,581.399z
		"/>
	<path style="fill:#FEFDFD;" d="M917.631,702.162c1.425-45.175,8.328-96.217,26.877-144.53
		c26.083-67.936,73.466-116.034,143.193-139.288c38.308-12.776,77.866-13.438,115.252,3.477
		c48.886,22.118,76.312,61.094,82.394,114.626c2.271,19.989-0.971,39.496-6.203,58.725c-1.819,6.687-6.746,11.415-11.402,16.133
		c-17.139,17.371-37.49,30.447-58.733,41.965c-37.135,20.133-74.735,39.408-112.009,59.287
		c-16.426,8.761-32.448,18.277-48.802,27.174c-21.173,11.519-15.244,30.766-3.348,40.345c14.361,11.565,30.384,19.568,49.284,18.264
		c16.103-1.111,31.733-5.313,47.085-10.366c19.93-6.559,39.349-14.411,58.413-23.137c2.952-1.351,4.612-0.986,6.728,1.445
		c8.325,9.562,9.22,20.869,7.354,32.483c-4.615,28.718-34.084,62.601-70.233,66.045c-23.995,2.286-47.796,6.576-71.823,8.984
		c-72.846,7.299-130.171-33.135-147.413-104.2C919.384,749.568,917.684,729.222,917.631,702.162z M1130.469,501.514
		c-31.396,0-52.871,7.262-68.27,22.722c-26.696,26.803-35.218,61.141-36.668,97.434c-0.543,13.592,7.133,18.756,20.779,17.655
		c13.442-1.085,26.794-2.801,39.957-5.855c41.517-9.634,73.637-32.051,95.107-69.275c11.354-19.686,7.37-37.734-11.549-50.069
		C1155.53,504.806,1139.579,501.605,1130.469,501.514z"/>
	<path style="fill:#FEFDFD;" d="M124.76,891.295c0.051-9.437,4.068-23.427,13.386-35.678c17.886-23.517,47.504-23.926,66.055-0.947
		c19.893,24.642,18.761,65.113-2.479,88.605c-17.983,19.891-46.202,18.468-63.156-3.311
		C128.786,927.399,124.666,912.911,124.76,891.295z"/>
	<path style="fill:#545454;" d="M1130.469,501.514c9.11,0.091,25.061,3.292,39.356,12.612
		c18.919,12.334,22.903,30.383,11.549,50.069c-21.47,37.224-53.59,59.641-95.107,69.275c-13.163,3.055-26.515,4.771-39.957,5.855
		c-13.645,1.101-21.322-4.063-20.779-17.655c1.451-36.293,9.972-70.631,36.668-97.434
		C1077.598,508.776,1099.073,501.514,1130.469,501.514z"/>
</g>
</svg>
