<?xml version="1.0" encoding="iso-8859-1"?>
<!-- Generator: Adobe Illustrator 20.1.0, SVG Export Plug-In . SVG Version: 6.00 Build 0)  -->
<svg version="1.1" id="Layer_1" xmlns="http://www.w3.org/2000/svg" xmlns:xlink="http://www.w3.org/1999/xlink" x="0px" y="0px"
	 viewBox="0 0 660.167 154.643" style="enable-background:new 0 0 660.167 154.643;" xml:space="preserve">
<g>
	<path style="fill:#444445;" d="M0,111.529c1.586-0.304,1.709-1.889,2.477-2.89c3.906-5.09,10.18-7.042,15.907-4.872
		c5.447,2.064,8.97,7.826,8.451,13.823c-0.489,5.654-4.943,10.655-10.5,11.787c-6.056,1.234-11.842-1.638-14.871-7.362
		c-0.449-0.849-0.975-1.659-1.465-2.487C0,116.862,0,114.195,0,111.529z"/>
	<path style="fill:#414142;" d="M660.166,68.986c-0.111,38.761-30.876,68.65-70.553,68.544
		c-36.809-0.099-67.248-31.354-67.142-68.943C522.58,30.026,553.374-0.124,592.523,0C629.79,0.119,660.274,31.209,660.166,68.986z
		 M652.233,65.047c0.113-3.184-0.135-8.85-2.555-14.12c-2.483-5.409-6.555-6.735-11.888-4.065c-3.323,1.664-5.929,4.253-8.558,6.81
		c-7.782,7.568-15.18,8.777-25.029,4.172c-3.932-1.839-7.562-4.164-11.146-6.593c-6.458-4.376-12.644-9.233-20.172-11.78
		c-9.053-3.063-17.688-0.631-23.783,6.69c-10.368,12.455-11.365,37.058-2.04,50.332c5.436,7.738,13.248,10.326,22.337,7.422
		c5.939-1.897,11.052-5.339,16.248-8.629c5.203-3.294,10.459-6.424,16.496-8.078c7.721-2.116,14.107-0.614,18.945,6.112
		c1.649,2.293,3.4,4.545,5.345,6.587c7.808,8.199,14.348,7.3,19.408-2.856C650.449,87.802,652.146,77.836,652.233,65.047z"/>
	<path style="fill:#434344;" d="M76.478,36.334c-2.787,12.377-5.575,24.622-8.296,36.882c-3.747,16.884-7.619,33.743-11.039,50.694
		c-0.903,4.476-2.555,5.927-7.121,5.742c-9.313-0.378-9.288-0.101-7.267-9.263C50.498,85.306,58.274,50.23,65.847,15.111
		c0.731-3.388,2.2-3.862,5.29-4.27c8.177-1.078,12.536,1.888,16.215,9.587c12.398,25.946,25.753,51.436,38.804,77.068
		c0.854,1.677,1.164,3.842,3.556,4.953c4.094-18.295,8.157-36.403,12.194-54.517c2.424-10.877,4.894-21.746,7.152-32.658
		c0.638-3.083,1.777-4.393,5.201-4.384c11.014,0.029,11.028-0.125,8.626,10.742c-7.61,34.428-15.302,68.838-22.746,103.302
		c-0.807,3.734-2.339,4.375-5.876,4.779c-7.327,0.838-11.01-1.871-14.248-8.593c-13.134-27.262-26.997-54.172-40.627-81.194
		C78.768,38.696,78.613,37.036,76.478,36.334z"/>
	<path style="fill:#434344;" d="M250.742,35.275c-2.676,11.906-5.123,22.678-7.514,33.462c-4.105,18.513-8.254,37.017-12.196,55.565
		c-0.798,3.752-1.905,5.574-6.363,5.378c-9.848-0.434-9.895-0.125-7.785-9.722c7.679-34.927,15.44-69.836,22.981-104.792
		c0.722-3.346,2.13-3.869,5.234-4.331c8.552-1.272,12.738,2.229,16.462,9.993c12.654,26.377,26.275,52.29,39.543,78.372
		c0.57,1.12,1.299,2.159,2.451,4.053c3.584-15.967,6.975-30.973,10.316-45.991c3.107-13.964,6.26-27.918,9.168-41.924
		c0.715-3.445,2.177-4.49,5.675-4.443c10.496,0.142,10.524-0.016,8.282,10.168c-7.655,34.76-15.373,69.506-22.925,104.288
		c-0.693,3.191-1.988,3.918-5.183,4.356c-7.996,1.097-11.797-2.279-15.216-9.393c-12.892-26.826-26.561-53.278-39.955-79.863
		C253.003,39.034,252.14,37.696,250.742,35.275z"/>
	<path style="fill:#454546;" d="M462.443,10.973c10.99,0,10.872,0.021,12.638,9.804c6.143,34.045,12.365,68.077,18.584,102.108
		c1.217,6.662,1.274,6.652-5.376,6.655c-9.743,0.005-9.734,0.003-11.493-9.638c-0.478-2.617-1.045-5.218-1.543-7.832
		c-1.713-8.986-1.708-8.987-10.954-8.987c-14.831,0-29.663,0.091-44.492-0.069c-3.376-0.037-5.481,0.888-7.212,3.937
		c-3.777,6.652-8.093,12.997-11.934,19.615c-1.371,2.363-2.938,3.246-5.587,3.023c-2.647-0.223-5.333,0.041-7.993-0.083
		c-1.582-0.074-3.609,0.837-4.647-0.81c-1.114-1.765,0.773-3.055,1.584-4.367c9.099-14.719,18.271-29.393,27.431-44.074
		c12.858-20.609,25.911-41.1,38.458-61.897C453.288,12.753,456.706,9.078,462.443,10.973z M422.469,89.973
		c16.273,0,31.402-0.06,46.53,0.044c3.615,0.025,3.008-1.921,2.606-4.211c-1.954-11.128-3.811-22.273-5.749-33.403
		c-1.405-8.073-2.884-16.133-4.585-25.621C448.006,48.384,435.536,68.693,422.469,89.973z"/>
	<path style="fill:#444445;" d="M325.946,154.571c-1.521,0.271-2.607-0.2-3.087-1.764c-0.096-0.312-0.319-0.583-0.446-0.889
		c-1.398-3.36-4.239-6.932-3.795-10.031c0.501-3.496,5.702-2.89,8.752-4.255c13.888-6.216,21.325-17.722,25.585-31.482
		c6.291-20.321,10.006-41.304,15.032-61.954c2.357-9.683,4.706-19.373,6.765-29.123c0.63-2.984,1.675-4.123,4.847-4.17
		c13.188-0.194,13.135-0.312,10.107,12.618c-5.947,25.391-11.761,50.813-17.765,76.191c-3.725,15.744-9.622,30.434-21.644,41.928
		C343.88,147.776,331.555,154.327,325.946,154.571z"/>
	<path style="fill:#444445;" d="M178.117,129.538c-2.035,0-3.215-0.121-4.362,0.022c-3.569,0.445-4.267-1.11-3.545-4.346
		c8.205-36.799,16.395-73.601,24.397-110.444c0.711-3.272,2.148-3.831,5.049-3.847c10.823-0.059,10.847-0.138,8.58,10.222
		c-7.492,34.239-15.165,68.44-22.348,102.743C184.683,129.646,181.849,130.291,178.117,129.538z"/>
	<path style="fill:#454546;" d="M603.799,70.829c-0.552,1.982-1.856,2.636-2.968,3.128c-6.521,2.888-13.65,3.782-20.387,6.297
		c-6.494,2.424-12.736-5.27-10.403-12.064c1.497-4.36-0.712-4.768-3.52-5.403c-2.36-0.534-4.775-0.828-7.672-1.313
		c5.051-3.201,5.263-3.245,13.376-3.057c-1.991-4.717-4.273-5.931-14.022-7.456c8.686-7.518,19.772-5.964,25.554,3.58
		c2.585,4.267,5.178,8.545,8.892,11.953C595.706,69.297,599.495,70.457,603.799,70.829z M580.333,74.093
		c1.005-0.374,2.916-0.805,2.445-2.215c-0.619-1.851-2.732-2.883-4.586-3.402c-1.477-0.414-1.862,1.185-1.789,2.322
		C576.542,72.978,578.023,73.901,580.333,74.093z"/>
	<path style="fill:#454546;" d="M614.492,71.79c9.451,0.895,15.195-3.329,19.319-10.459c0.886-1.532,2.333-2.843,3.766-3.934
		c2.642-2.013,6.097-4.545,8.909-2.533c2.745,1.965,2.24,6.345,2.575,9.802c0.031,0.317-0.038,0.906-0.165,0.937
		c-5.724,1.374-2.554,5.654-2.94,8.794c-0.416,3.386-2.232,5.87-5.4,7.223c-3.328,1.421-6.814,1.316-9.338-1.192
		c-1.981-1.969-3.878-2.358-6.452-2.51C620.85,77.686,617.775,75.449,614.492,71.79z M639.38,70.427
		c-1.704,1.001-4.07,1.714-4.646,3.836c-0.318,1.172,1.4,2.138,2.859,2.099c2.088-0.055,3.472-1.086,3.539-3.304
		C641.166,71.931,641.153,70.658,639.38,70.427z"/>
	<path style="fill:#EBEBEB;" d="M580.333,74.093c-2.31-0.192-3.79-1.115-3.93-3.296c-0.073-1.136,0.312-2.735,1.789-2.322
		c1.854,0.519,3.967,1.551,4.586,3.402C583.249,73.288,581.337,73.719,580.333,74.093z"/>
	<path style="fill:#EBEBEC;" d="M639.38,70.427c1.773,0.23,1.786,1.504,1.752,2.631c-0.067,2.218-1.451,3.249-3.539,3.304
		c-1.458,0.039-3.177-0.927-2.859-2.099C635.31,72.142,637.675,71.429,639.38,70.427z"/>
</g>
</svg>
