<?xml version="1.0" encoding="iso-8859-1"?>
<!-- Generator: Adobe Illustrator 20.1.0, SVG Export Plug-In . SVG Version: 6.00 Build 0)  -->
<svg version="1.1" id="Layer_1" xmlns="http://www.w3.org/2000/svg" xmlns:xlink="http://www.w3.org/1999/xlink" x="0px" y="0px"
	 viewBox="0 0 320.29 321.739" style="enable-background:new 0 0 320.29 321.739;" xml:space="preserve">
<circle style="fill:#D5ECEF;stroke:#B9E0E5;stroke-width:10;stroke-miterlimit:10;" cx="159.993" cy="161.959" r="151.5"/>
<g>
	<path style="fill:#EDEDED;" d="M238.726,160.274c0,43.483-35.25,78.733-78.733,78.733c-43.484,0-78.734-35.25-78.734-78.733
		c0-43.484,35.25-78.734,78.734-78.734C203.476,81.54,238.726,116.791,238.726,160.274L238.726,160.274z M238.726,160.274"/>
	<path style="fill:#545454;" d="M159.993,242.275c-21.904,0-42.495-8.53-57.984-24.018c-15.488-15.488-24.017-36.081-24.017-57.983
		s8.529-42.495,24.017-57.984c15.489-15.488,36.079-24.017,57.984-24.017c21.903,0,42.495,8.529,57.982,24.017
		c15.489,15.489,24.019,36.081,24.019,57.984s-8.53,42.495-24.019,57.983C202.488,233.745,181.895,242.275,159.993,242.275
		L159.993,242.275z M159.993,84.808c-41.613,0-75.467,33.854-75.467,75.467c0,41.612,33.854,75.466,75.467,75.466
		c41.612,0,75.466-33.854,75.466-75.466C235.459,118.661,201.605,84.808,159.993,84.808L159.993,84.808z M159.993,84.808"/>
	<path style="fill:#59BBA9;" d="M223.184,160.274c0,34.9-28.292,63.192-63.192,63.192s-63.193-28.292-63.193-63.192
		s28.293-63.193,63.193-63.193S223.184,125.374,223.184,160.274L223.184,160.274z M223.184,160.274"/>
	<path style="fill:#545454;" d="M159.993,226.735c-36.647,0-66.462-29.814-66.462-66.46c0-36.647,29.815-66.461,66.462-66.461
		c36.647,0,66.46,29.814,66.46,66.461C226.453,196.921,196.64,226.735,159.993,226.735L159.993,226.735z M159.993,100.347
		c-33.045,0-59.928,26.883-59.928,59.928c0,33.043,26.883,59.926,59.928,59.926c33.043,0,59.928-26.883,59.928-59.926
		C219.92,127.229,193.036,100.347,159.993,100.347L159.993,100.347z M159.993,100.347"/>
	<path style="fill:#545454;" d="M206.986,168.115c-0.114,0-0.23-0.006-0.347-0.019c-1.794-0.189-3.095-1.797-2.906-3.591
		c0.163-1.538,0.245-3.106,0.245-4.662c0-1.803,1.463-3.266,3.266-3.266c1.805,0,3.268,1.463,3.268,3.266
		c0,1.785-0.094,3.583-0.28,5.347C210.053,166.868,208.636,168.115,206.986,168.115L206.986,168.115z M206.986,168.115"/>
	<path style="fill:#545454;" d="M205.021,174.563c-1.672-0.68-3.577,0.124-4.257,1.796c-6.758,16.624-22.721,27.366-40.668,27.366
		c-24.196,0-43.881-19.685-43.881-43.882c0-14.45,7.215-28.017,19.025-36.161l0.08,0.188c1.059,2.499,4.424,2.917,6.059,0.751
		l4.422-5.854c1.636-2.165,0.315-5.288-2.379-5.623l-7.281-0.902c-2.693-0.333-4.737,2.373-3.68,4.872l0.188,0.442
		c-6.56,4.267-12.081,10.025-16.052,16.787c-4.525,7.702-6.916,16.519-6.916,25.5c0,27.799,22.616,50.415,50.415,50.415
		c10.226,0,20.073-3.045,28.476-8.807c8.202-5.624,14.511-13.449,18.244-22.632C207.497,177.147,206.693,175.242,205.021,174.563
		L205.021,174.563z M205.021,174.563"/>
	<path style="fill:#545454;" d="M155.279,180.855h-21.421c-1.412,0-2.663-0.906-3.105-2.246c-0.441-1.341,0.03-2.812,1.166-3.65
		c0.05-0.036,5.135-3.803,10.126-8.56c8.665-8.26,9.337-12.09,9.337-13.068c0-4.206-3.553-7.759-7.759-7.759
		c-4.278,0-7.759,3.48-7.759,7.759c0,1.805-1.462,3.267-3.266,3.267c-1.805,0-3.267-1.462-3.267-3.267
		c0-7.881,6.411-14.294,14.292-14.294c7.883,0,14.294,6.412,14.294,14.294c0,4.697-3.732,10.532-11.41,17.842
		c-1.173,1.115-2.343,2.174-3.453,3.149h12.226c1.805,0,3.268,1.462,3.268,3.266C158.546,179.393,157.083,180.855,155.279,180.855
		L155.279,180.855z M155.279,180.855"/>
	<path style="fill:#545454;" d="M182.371,180.855c-1.803,0-3.267-1.462-3.267-3.267v-6.813H163.89c-1.232,0-2.358-0.693-2.915-1.791
		c-0.555-1.098-0.447-2.415,0.28-3.408l18.481-25.203c0.837-1.139,2.31-1.611,3.652-1.173c1.342,0.441,2.251,1.692,2.251,3.106
		v21.934h4.084c1.803,0,3.267,1.464,3.267,3.267c0,1.805-1.464,3.267-3.267,3.267h-4.084v6.813
		C185.638,179.393,184.176,180.855,182.371,180.855L182.371,180.855z M170.337,164.241h8.766v-11.955L170.337,164.241z
		 M170.337,164.241"/>
</g>
<g>
</g>
<g>
</g>
<g>
</g>
<g>
</g>
<g>
</g>
<g>
</g>
</svg>
