<?xml version="1.0" encoding="iso-8859-1"?>
<!-- Generator: Adobe Illustrator 20.1.0, SVG Export Plug-In . SVG Version: 6.00 Build 0)  -->
<svg version="1.1" id="Layer_1" xmlns="http://www.w3.org/2000/svg" xmlns:xlink="http://www.w3.org/1999/xlink" x="0px" y="0px"
	 viewBox="0 0 320.29 321.739" style="enable-background:new 0 0 320.29 321.739;" xml:space="preserve">
<circle style="fill:#D5ECEF;stroke:#B9E0E5;stroke-width:10;stroke-miterlimit:10;" cx="159.993" cy="161.959" r="151.5"/>
<g>
	<path style="fill:#59BDB6;" d="M199.627,94.322c-16.799,0-31.421,9.304-39.004,23.038c-7.583-13.734-22.207-23.038-39.006-23.038
		c-24.59,0-44.525,19.935-44.525,44.524c0,24.591,29.737,51.874,44.525,64.829c9.624,8.431,39.006,33.128,39.006,33.128
		s29.382-24.695,39.004-33.126c14.79-12.958,44.526-40.24,44.526-64.829C244.153,114.257,224.218,94.322,199.627,94.322
		L199.627,94.322z M199.627,94.322"/>
	<path style="fill:#555454;" d="M217.464,166.343h-1.387c-1.913,0-3.465,1.552-3.465,3.467c0,1.913,1.552,3.465,3.465,3.465h1.387
		c1.915,0,3.466-1.552,3.466-3.465C220.931,167.895,219.379,166.343,217.464,166.343L217.464,166.343z M217.464,166.343"/>
	<g>
		<path style="fill:none;" d="M199.627,97.789c-14.952,0-28.734,8.142-35.971,21.247c-0.609,1.105-1.772,1.79-3.033,1.79
			c-1.263,0-2.424-0.685-3.035-1.79c-7.235-13.105-21.018-21.247-35.969-21.247c-22.641,0-41.06,18.418-41.06,41.06
			c0,7.794,3.374,16.034,8.303,23.942h18.73c0.919,0,1.802,0.365,2.451,1.016l7.255,7.253V146.5c0-1.401,0.844-2.665,2.139-3.201
			c1.296-0.536,2.786-0.24,3.778,0.75l38.968,38.969v-46.915c0-1.402,0.844-2.665,2.139-3.202c1.296-0.536,2.786-0.239,3.778,0.751
			l32.692,32.692h3.156c1.915,0,3.466,1.552,3.466,3.467c0,1.913-1.551,3.465-3.466,3.465h-4.593c-0.919,0-1.8-0.365-2.451-1.014
			l-27.789-27.79v46.914c0,1.402-0.844,2.665-2.141,3.202c-0.428,0.178-0.879,0.264-1.326,0.264c-0.901,0-1.787-0.352-2.451-1.016
			l-38.967-38.967v24.559c0,1.402-0.844,2.665-2.14,3.202c-1.294,0.536-2.786,0.239-3.777-0.751l-12.156-12.156H93.615
			c10.336,13.865,24.035,25.87,30.287,31.349c7.942,6.958,29.681,25.278,36.721,31.203c7.039-5.925,28.777-24.246,36.719-31.205
			c10.721-9.392,43.345-37.975,43.345-62.221C240.686,116.207,222.266,97.789,199.627,97.789z"/>
		<path style="fill:#555454;" d="M118.313,181.878c0.991,0.991,2.482,1.288,3.777,0.751c1.296-0.537,2.14-1.8,2.14-3.202v-24.559
			l38.967,38.967c0.664,0.664,1.55,1.016,2.451,1.016c0.446,0,0.898-0.086,1.326-0.264c1.296-0.538,2.141-1.801,2.141-3.202V144.47
			l27.789,27.79c0.65,0.649,1.531,1.014,2.451,1.014h4.593c1.915,0,3.466-1.552,3.466-3.465c0-1.915-1.551-3.467-3.466-3.467h-3.156
			L168.1,133.651c-0.992-0.991-2.482-1.288-3.778-0.751c-1.294,0.538-2.139,1.8-2.139,3.202v46.915l-38.968-38.969
			c-0.992-0.991-2.482-1.286-3.778-0.75c-1.294,0.536-2.139,1.801-2.139,3.201v24.559l-7.255-7.253
			c-0.649-0.65-1.531-1.016-2.451-1.016h-18.73l4.752,6.931h12.543L118.313,181.878z"/>
		<path style="fill:#555454;" d="M199.627,90.856c-15.568,0-30.05,7.55-39.004,20.027c-8.954-12.476-23.436-20.027-39.005-20.027
			c-26.463,0-47.991,21.53-47.991,47.993c0,11.456,5.882,24.561,17.484,38.952c9.141,11.338,19.885,21.178,28.224,28.484
			c9.539,8.356,38.765,32.926,39.059,33.173c0.644,0.541,1.437,0.813,2.23,0.813s1.584-0.272,2.23-0.813
			c0.294-0.248,29.519-24.817,39.059-33.173c8.338-7.306,19.08-17.146,28.222-28.484c11.602-14.391,17.486-27.496,17.486-38.952
			C247.619,112.385,226.09,90.856,199.627,90.856z M197.342,201.069c-7.941,6.959-29.68,25.28-36.719,31.205
			c-7.04-5.925-28.779-24.246-36.721-31.203c-6.252-5.479-19.951-17.484-30.287-31.349l-4.752-6.931
			c-4.93-7.908-8.303-16.148-8.303-23.942c0-22.641,18.419-41.06,41.06-41.06c14.951,0,28.735,8.142,35.969,21.247
			c0.611,1.105,1.772,1.79,3.035,1.79c1.261,0,2.424-0.685,3.033-1.79c7.237-13.105,21.019-21.247,35.971-21.247
			c22.64,0,41.06,18.418,41.06,41.06C240.686,163.094,208.063,191.678,197.342,201.069z"/>
	</g>
</g>
<g>
</g>
<g>
</g>
<g>
</g>
<g>
</g>
<g>
</g>
<g>
</g>
</svg>
