<?xml version="1.0" encoding="iso-8859-1"?>
<!-- Generator: Adobe Illustrator 20.1.0, SVG Export Plug-In . SVG Version: 6.00 Build 0)  -->
<svg version="1.1" id="Layer_1" xmlns="http://www.w3.org/2000/svg" xmlns:xlink="http://www.w3.org/1999/xlink" x="0px" y="0px"
	 viewBox="-49 141 512 512" style="enable-background:new -49 141 512 512;" xml:space="preserve">
<path style="fill:#D6EBED;" d="M356.923,424.69v58.735c0,19.086-57.04,45.727-149.923,45.727s-149.923-26.64-149.923-45.727V424.69
	c7.934,5.628,18.671,11.14,33.145,16.215c31.346,10.967,72.817,17.011,116.779,17.011s85.433-6.043,116.779-17.011
	C338.252,435.83,348.989,430.318,356.923,424.69z M260.557,502.315c5.686-0.692,9.745-5.859,9.053-11.544
	c-0.692-5.697-5.859-9.757-11.556-9.065c-16.342,1.984-33.525,2.987-51.055,2.987c-17.541,0-34.725-1.003-51.055-2.987
	c-5.697-0.692-10.864,3.368-11.556,9.053c-0.692,5.697,3.368,10.864,9.053,11.556c17.16,2.076,35.186,3.137,53.557,3.137
	C225.36,505.452,243.374,504.391,260.557,502.315z"/>
<path style="fill:#D6EBED;" d="M356.923,332.717v58.712c0,19.098-57.04,45.727-149.923,45.727S57.077,410.528,57.077,391.43v-58.712
	c7.934,5.628,18.671,11.14,33.145,16.215C121.567,359.9,163.038,365.943,207,365.943s85.433-6.043,116.779-17.011
	C338.252,343.858,348.989,338.345,356.923,332.717z M260.557,410.32c5.686-0.68,9.745-5.859,9.053-11.544
	c-0.692-5.686-5.859-9.757-11.556-9.053c-16.353,1.972-33.525,2.975-51.055,2.975c-17.541,0-34.713-1.003-51.055-2.975
	c-5.697-0.692-10.864,3.356-11.556,9.053c-0.692,5.686,3.368,10.864,9.053,11.544c17.172,2.087,35.186,3.137,53.557,3.137
	C225.36,413.457,243.374,412.408,260.557,410.32z"/>
<path style="fill:#D6EBED;" d="M356.923,240.745v58.712c0,19.098-57.04,45.727-149.923,45.727S57.077,318.555,57.077,299.458
	v-58.712c7.934,5.628,18.671,11.14,33.145,16.215c31.346,10.967,72.817,17.011,116.779,17.011s85.433-6.043,116.779-17.011
	C338.252,251.886,348.989,246.373,356.923,240.745z M260.557,318.348c5.686-0.68,9.745-5.859,9.053-11.544
	c-0.692-5.697-5.859-9.757-11.556-9.053c-16.353,1.972-33.525,2.975-51.055,2.975c-17.541,0-34.713-1.003-51.055-2.975
	c-5.697-0.692-10.864,3.356-11.556,9.053c-0.692,5.686,3.368,10.864,9.053,11.544c17.172,2.087,35.186,3.137,53.557,3.137
	C225.36,321.485,243.374,320.435,260.557,318.348z"/>
<g>
	<path style="fill:#E4F5F4;" d="M207,161.759c92.883,0,149.923,26.629,149.923,45.727S299.883,253.212,207,253.212
		S57.077,226.583,57.077,207.485S114.117,161.759,207,161.759z M257.605,207.485c0-6.366-5.167-11.533-11.533-11.533
		c-6.366,0-11.533,5.167-11.533,11.533s5.167,11.533,11.533,11.533C252.438,219.018,257.605,213.851,257.605,207.485z
		 M218.533,207.485c0-6.366-5.167-11.533-11.533-11.533s-11.533,5.167-11.533,11.533s5.167,11.533,11.533,11.533
		S218.533,213.851,218.533,207.485z M179.46,207.485c0-6.366-5.167-11.533-11.533-11.533s-11.533,5.167-11.533,11.533
		s5.167,11.533,11.533,11.533C174.294,219.018,179.46,213.851,179.46,207.485z"/>
	<path style="fill:#E4F5F4;" d="M207,601.68c8.43,0,15.281,6.85,15.281,15.281s-6.85,15.281-15.281,15.281
		c-8.43,0-15.281-6.85-15.281-15.281S198.57,601.68,207,601.68z"/>
</g>
<g>
	<path style="fill:#545454;" d="M323.779,158.011C292.433,147.043,250.962,141,207,141s-85.433,6.043-116.779,17.011
		c-44.55,15.592-53.903,35.509-53.903,49.475v91.972v91.972v0.012v0.012v91.972c0,13.954,9.353,33.871,53.903,49.463
		c28.866,10.103,66.324,16.019,106.4,16.895v32.672c-14.831,4.463-25.66,18.245-25.66,34.505C170.961,636.831,187.129,653,207,653
		s36.039-16.169,36.039-36.039c0-16.261-10.829-30.042-25.66-34.505v-32.672c40.076-0.876,77.533-6.793,106.4-16.895
		c44.55-15.592,53.903-35.509,53.903-49.463v-91.972v-0.012v-0.012v-91.972v-91.972
		C377.682,193.519,368.329,173.603,323.779,158.011z M222.281,616.961c0,8.43-6.85,15.281-15.281,15.281
		c-8.43,0-15.281-6.85-15.281-15.281S198.57,601.68,207,601.68C215.43,601.68,222.281,608.53,222.281,616.961z M356.923,483.425
		c0,19.086-57.04,45.727-149.923,45.727s-149.923-26.64-149.923-45.727V424.69c7.934,5.628,18.671,11.14,33.145,16.215
		c31.346,10.967,72.817,17.011,116.779,17.011s85.433-6.043,116.779-17.011c14.473-5.074,25.21-10.587,33.145-16.215V483.425z
		 M356.923,391.43c0,19.098-57.04,45.727-149.923,45.727S57.077,410.528,57.077,391.43v-58.712
		c7.934,5.628,18.671,11.14,33.145,16.215C121.567,359.9,163.038,365.943,207,365.943s85.433-6.043,116.779-17.011
		c14.473-5.074,25.21-10.587,33.145-16.215V391.43z M356.923,299.458c0,19.098-57.04,45.727-149.923,45.727
		S57.077,318.555,57.077,299.458v-58.712c7.934,5.628,18.671,11.14,33.145,16.215c31.346,10.967,72.817,17.011,116.779,17.011
		s85.433-6.043,116.779-17.011c14.473-5.074,25.21-10.587,33.145-16.215V299.458z M207,253.212
		c-92.883,0-149.923-26.629-149.923-45.727s57.04-45.727,149.923-45.727s149.923,26.629,149.923,45.727S299.883,253.212,207,253.212
		z"/>
	<path style="fill:#545454;" d="M367.303,606.581h-94.567c-5.732,0-10.379,4.648-10.379,10.379s4.648,10.379,10.379,10.379h94.567
		c5.732,0,10.379-4.648,10.379-10.379S373.034,606.581,367.303,606.581z"/>
	<path style="fill:#545454;" d="M258.055,297.751c-16.353,1.972-33.525,2.975-51.055,2.975c-17.541,0-34.713-1.003-51.055-2.975
		c-5.697-0.692-10.864,3.356-11.556,9.053c-0.692,5.686,3.368,10.864,9.053,11.544c17.172,2.087,35.186,3.137,53.557,3.137
		c18.36,0,36.374-1.049,53.557-3.137c5.686-0.68,9.745-5.859,9.053-11.544C268.918,301.107,263.752,297.047,258.055,297.751z"/>
	<path style="fill:#545454;" d="M258.055,389.723c-16.353,1.972-33.525,2.975-51.055,2.975c-17.541,0-34.713-1.003-51.055-2.975
		c-5.697-0.692-10.864,3.356-11.556,9.053c-0.692,5.686,3.368,10.864,9.053,11.544c17.172,2.087,35.186,3.137,53.557,3.137
		c18.36,0,36.374-1.049,53.557-3.137c5.686-0.68,9.745-5.859,9.053-11.544C268.918,393.09,263.752,389.019,258.055,389.723z"/>
	<path style="fill:#545454;" d="M258.055,481.707c-16.342,1.984-33.525,2.987-51.055,2.987c-17.541,0-34.725-1.003-51.055-2.987
		c-5.697-0.692-10.864,3.368-11.556,9.053c-0.692,5.697,3.368,10.864,9.053,11.556c17.16,2.076,35.186,3.137,53.557,3.137
		c18.36,0,36.374-1.061,53.557-3.137c5.686-0.692,9.745-5.859,9.053-11.544C268.918,485.074,263.752,481.015,258.055,481.707z"/>
	<path style="fill:#545454;" d="M246.072,195.953c-6.366,0-11.533,5.167-11.533,11.533s5.167,11.533,11.533,11.533
		s11.533-5.167,11.533-11.533S252.438,195.953,246.072,195.953z"/>
	<path style="fill:#545454;" d="M207,195.953c-6.366,0-11.533,5.167-11.533,11.533s5.167,11.533,11.533,11.533
		s11.533-5.167,11.533-11.533S213.366,195.953,207,195.953z"/>
	<path style="fill:#545454;" d="M167.928,195.953c-6.366,0-11.533,5.167-11.533,11.533s5.167,11.533,11.533,11.533
		s11.533-5.167,11.533-11.533S174.294,195.953,167.928,195.953z"/>
	<path style="fill:#545454;" d="M141.264,606.581H46.697c-5.732,0-10.379,4.648-10.379,10.379s4.648,10.379,10.379,10.379h94.567
		c5.732,0,10.379-4.648,10.379-10.379S146.996,606.581,141.264,606.581z"/>
</g>
</svg>
