<?xml version="1.0" encoding="iso-8859-1"?>
<!-- Generator: Adobe Illustrator 20.1.0, SVG Export Plug-In . SVG Version: 6.00 Build 0)  -->
<svg version="1.1" id="Layer_1" xmlns="http://www.w3.org/2000/svg" xmlns:xlink="http://www.w3.org/1999/xlink" x="0px" y="0px"
	 viewBox="-1743.749 141 2771.666 512" style="enable-background:new -1743.749 141 2771.666 512;" xml:space="preserve">
<polygon style="fill:#F5C525;" points="207.001,163.23 268.196,332.236 452.801,341.815 314.092,445.447 358.913,630.77 
	207.001,512.251 55.088,630.77 100.929,445.447 -38.8,341.815 146.825,332.236 "/>
<g>
	<path style="fill:#545454;" d="M55.086,640.969c-1.926,0-3.855-0.544-5.548-1.642c-3.648-2.366-5.395-6.785-4.351-11.007
		l44.21-178.729l-134.272-99.585c-3.457-2.564-4.932-7.021-3.688-11.141s4.94-7.015,9.238-7.237l178.826-9.228l57.891-162.59
		c1.444-4.055,5.277-6.767,9.582-6.778c0.009,0,0.018,0,0.027,0c4.293,0,8.128,2.689,9.589,6.726l58.891,162.643l177.848,9.228
		c4.29,0.223,7.981,3.111,9.23,7.221c1.249,4.111-0.213,8.563-3.654,11.135L325.586,449.59l43.24,178.784
		c1.02,4.216-0.74,8.617-4.386,10.968s-8.381,2.14-11.801-0.53L207.001,525.187L61.361,638.812
		C59.524,640.245,57.308,640.969,55.086,640.969z M207.001,502.052c2.215,0,4.431,0.719,6.274,2.158l128.849,100.525
		l-37.945-156.891c-0.959-3.967,0.539-8.125,3.808-10.568l116.097-86.738l-156.418-8.117c-4.095-0.212-7.665-2.858-9.061-6.713
		L207.081,193.41l-50.647,142.247c-1.382,3.883-4.967,6.552-9.082,6.764l-157.269,8.117l116.923,86.717
		c3.305,2.451,4.813,6.648,3.825,10.642L72.071,604.583l128.656-100.374C202.57,502.771,204.785,502.052,207.001,502.052z"/>
	<path style="fill:#545454;" d="M308.701,561.902c-4.602,0-8.775-3.134-9.905-7.804l-13.241-54.748
		c-1.325-5.475,2.041-10.987,7.516-12.31s10.986,2.041,12.31,7.516l13.241,54.748c1.325,5.475-2.041,10.987-7.516,12.31
		C310.301,561.808,309.493,561.902,308.701,561.902z"/>
	<path style="fill:#545454;" d="M288.06,476.557c-4.601,0-8.775-3.133-9.905-7.802l-0.494-2.041
		c-1.325-5.475,2.039-10.987,7.514-12.312c5.477-1.327,10.987,2.04,12.312,7.514l0.494,2.041c1.325,5.475-2.039,10.987-7.514,12.312
		C289.662,476.463,288.854,476.557,288.06,476.557z"/>
</g>
<polygon style="fill:#F5C525;" points="-357.916,163.23 -296.721,332.236 -112.116,341.815 -250.825,445.447 -206.003,630.77 
	-357.916,512.251 -509.829,630.77 -463.987,445.447 -603.716,341.815 -418.091,332.236 "/>
<g>
	<path style="fill:#545454;" d="M-509.831,640.969c-1.926,0-3.855-0.544-5.548-1.642c-3.648-2.366-5.395-6.786-4.351-11.007
		l44.21-178.729l-134.272-99.585c-3.456-2.564-4.932-7.021-3.688-11.141c1.244-4.119,4.94-7.015,9.238-7.237l178.826-9.228
		l57.891-162.59c1.444-4.055,5.277-6.767,9.582-6.778c0.009,0,0.018,0,0.027,0c4.293,0,8.128,2.689,9.589,6.726l58.891,162.643
		l177.848,9.228c4.29,0.223,7.981,3.111,9.23,7.221c1.249,4.111-0.213,8.563-3.654,11.135l-133.319,99.604l43.24,178.784
		c1.02,4.216-0.74,8.617-4.386,10.968c-3.645,2.351-8.381,2.14-11.801-0.53l-145.639-113.624l-145.639,113.625
		C-505.392,640.245-507.608,640.969-509.831,640.969z M-357.916,502.052c2.215,0,4.431,0.719,6.273,2.158l128.849,100.525
		l-37.945-156.891c-0.959-3.967,0.539-8.125,3.808-10.568l116.097-86.738l-156.418-8.117c-4.095-0.212-7.665-2.858-9.061-6.713
		l-51.524-142.299l-50.647,142.247c-1.382,3.883-4.967,6.552-9.082,6.764l-157.269,8.117l116.923,86.717
		c3.305,2.451,4.813,6.648,3.825,10.642l-38.759,156.688l128.656-100.374C-362.346,502.771-360.131,502.052-357.916,502.052z"/>
	<path style="fill:#545454;" d="M-256.216,561.902c-4.602,0-8.775-3.134-9.905-7.804l-13.241-54.748
		c-1.325-5.475,2.041-10.987,7.516-12.31s10.986,2.041,12.31,7.516l13.241,54.748c1.325,5.475-2.041,10.987-7.516,12.31
		C-254.616,561.808-255.423,561.902-256.216,561.902z"/>
	<path style="fill:#545454;" d="M-276.857,476.557c-4.601,0-8.775-3.133-9.905-7.802l-0.494-2.041
		c-1.325-5.475,2.039-10.987,7.514-12.312c5.477-1.327,10.987,2.04,12.312,7.514l0.494,2.041c1.325,5.475-2.039,10.987-7.514,12.312
		C-275.255,476.463-276.062,476.557-276.857,476.557z"/>
</g>
<polygon style="fill:#F5C525;" points="771.917,166.302 833.112,335.308 1017.717,344.887 879.008,448.519 923.83,633.842 
	771.917,515.324 620.004,633.842 665.846,448.519 526.117,344.887 711.742,335.308 "/>
<g>
	<path style="fill:#545454;" d="M620.002,644.041c-1.926,0-3.855-0.544-5.548-1.642c-3.648-2.366-5.395-6.785-4.351-11.007
		l44.21-178.729l-134.272-99.585c-3.457-2.564-4.932-7.021-3.688-11.141c1.244-4.119,4.94-7.015,9.238-7.237l178.826-9.228
		l57.891-162.59c1.444-4.055,5.277-6.767,9.582-6.778c0.009,0,0.018,0,0.026,0c4.293,0,8.128,2.689,9.589,6.726l58.891,162.643
		l177.848,9.228c4.29,0.223,7.981,3.111,9.23,7.221c1.249,4.111-0.213,8.563-3.654,11.135l-133.319,99.604l43.24,178.784
		c1.02,4.216-0.74,8.617-4.386,10.968s-8.381,2.14-11.802-0.53L771.917,528.259L626.278,641.884
		C624.441,643.317,622.225,644.041,620.002,644.041z M771.917,505.124c2.215,0,4.431,0.719,6.274,2.158L907.04,607.808
		l-37.945-156.891c-0.959-3.967,0.539-8.125,3.808-10.568l116.097-86.738l-156.418-8.117c-4.095-0.212-7.665-2.858-9.061-6.713
		l-51.524-142.299L721.35,338.729c-1.382,3.883-4.967,6.552-9.082,6.764l-157.269,8.117l116.923,86.717
		c3.305,2.451,4.813,6.648,3.825,10.642l-38.759,156.688l128.656-100.374C767.487,505.843,769.702,505.124,771.917,505.124z"/>
	<path style="fill:#545454;" d="M873.617,564.974c-4.602,0-8.775-3.134-9.905-7.804l-13.241-54.748
		c-1.325-5.475,2.041-10.987,7.516-12.31s10.986,2.041,12.31,7.516l13.241,54.748c1.325,5.475-2.041,10.987-7.516,12.31
		C875.217,564.88,874.41,564.974,873.617,564.974z"/>
	<path style="fill:#545454;" d="M852.976,479.63c-4.601,0-8.775-3.133-9.905-7.802l-0.494-2.041
		c-1.325-5.475,2.039-10.987,7.514-12.312c5.477-1.327,10.987,2.04,12.312,7.514l0.494,2.041c1.325,5.475-2.039,10.987-7.514,12.312
		C854.578,479.536,853.771,479.63,852.976,479.63z"/>
</g>
<polygon style="fill:#F5C525;" points="-922.832,164.23 -861.637,333.236 -677.032,342.815 -815.741,446.447 -770.919,631.77 
	-922.832,513.251 -1074.745,631.77 -1028.904,446.447 -1168.633,342.815 -983.007,333.236 "/>
<g>
	<path style="fill:#545454;" d="M-1074.747,641.969c-1.926,0-3.855-0.544-5.548-1.642c-3.648-2.366-5.395-6.786-4.351-11.007
		l44.21-178.729l-134.272-99.585c-3.456-2.564-4.932-7.021-3.688-11.141s4.941-7.015,9.238-7.237l178.826-9.228l57.891-162.59
		c1.444-4.055,5.277-6.767,9.582-6.778c0.009,0,0.018,0,0.027,0c4.293,0,8.128,2.689,9.589,6.726l58.891,162.643l177.848,9.228
		c4.29,0.223,7.981,3.111,9.23,7.221c1.249,4.111-0.213,8.563-3.654,11.135l-133.319,99.604l43.24,178.784
		c1.02,4.216-0.74,8.617-4.386,10.968c-3.645,2.351-8.381,2.14-11.801-0.53l-145.639-113.624l-145.639,113.625
		C-1070.308,641.245-1072.525,641.969-1074.747,641.969z M-922.832,503.052c2.215,0,4.43,0.719,6.273,2.158l128.849,100.525
		l-37.945-156.891c-0.959-3.967,0.539-8.125,3.808-10.568l116.097-86.738l-156.418-8.117c-4.095-0.212-7.665-2.858-9.061-6.713
		l-51.524-142.299l-50.647,142.247c-1.382,3.883-4.967,6.552-9.082,6.764l-157.269,8.117l116.923,86.717
		c3.305,2.451,4.813,6.648,3.825,10.642l-38.759,156.688l128.656-100.374C-927.263,503.771-925.047,503.052-922.832,503.052z"/>
	<path style="fill:#545454;" d="M-821.132,562.902c-4.602,0-8.775-3.134-9.905-7.804l-13.241-54.748
		c-1.325-5.475,2.041-10.987,7.516-12.31c5.475-1.324,10.986,2.041,12.31,7.516l13.241,54.748c1.325,5.475-2.041,10.987-7.516,12.31
		C-819.532,562.808-820.34,562.902-821.132,562.902z"/>
	<path style="fill:#545454;" d="M-841.773,477.557c-4.601,0-8.775-3.133-9.905-7.802l-0.494-2.041
		c-1.325-5.475,2.039-10.987,7.514-12.312c5.477-1.327,10.987,2.04,12.312,7.514l0.494,2.041c1.325,5.475-2.039,10.987-7.514,12.312
		C-840.171,477.463-840.979,477.557-841.773,477.557z"/>
</g>
<polygon style="fill:#F5C525;" points="-1487.748,164.23 -1426.553,333.236 -1241.948,342.815 -1380.657,446.447 -1335.836,631.77 
	-1487.748,513.251 -1639.661,631.77 -1593.82,446.447 -1733.549,342.815 -1547.924,333.236 "/>
<g>
	<path style="fill:#545454;" d="M-1639.663,641.969c-1.926,0-3.855-0.544-5.548-1.642c-3.648-2.366-5.395-6.786-4.351-11.007
		l44.21-178.729l-134.272-99.585c-3.457-2.564-4.932-7.021-3.688-11.141c1.244-4.119,4.941-7.015,9.238-7.237l178.826-9.228
		l57.891-162.59c1.444-4.055,5.277-6.767,9.582-6.778c0.009,0,0.018,0,0.026,0c4.293,0,8.128,2.689,9.589,6.726l58.891,162.643
		l177.848,9.228c4.29,0.223,7.981,3.111,9.23,7.221c1.249,4.111-0.213,8.563-3.654,11.135l-133.319,99.604l43.24,178.784
		c1.02,4.216-0.74,8.617-4.386,10.968c-3.645,2.351-8.381,2.14-11.802-0.53l-145.639-113.624l-145.639,113.625
		C-1635.224,641.245-1637.441,641.969-1639.663,641.969z M-1487.748,503.052c2.215,0,4.431,0.719,6.274,2.158l128.849,100.525
		l-37.945-156.891c-0.959-3.967,0.539-8.125,3.808-10.568l116.097-86.738l-156.418-8.117c-4.095-0.212-7.665-2.858-9.061-6.713
		l-51.524-142.299l-50.647,142.247c-1.382,3.883-4.967,6.552-9.082,6.764l-157.269,8.117l116.923,86.717
		c3.305,2.451,4.813,6.648,3.825,10.642l-38.759,156.688l128.656-100.374C-1492.179,503.771-1489.964,503.052-1487.748,503.052z"/>
	<path style="fill:#545454;" d="M-1386.048,562.902c-4.602,0-8.775-3.134-9.906-7.804l-13.24-54.748
		c-1.325-5.475,2.041-10.987,7.516-12.31c5.475-1.324,10.985,2.041,12.31,7.516l13.241,54.748c1.325,5.475-2.041,10.987-7.516,12.31
		C-1384.448,562.808-1385.256,562.902-1386.048,562.902z"/>
	<path style="fill:#545454;" d="M-1406.689,477.557c-4.601,0-8.775-3.133-9.906-7.802l-0.494-2.041
		c-1.325-5.475,2.039-10.987,7.514-12.312c5.477-1.327,10.987,2.04,12.313,7.514l0.494,2.041c1.325,5.475-2.039,10.987-7.514,12.312
		C-1405.087,477.463-1405.895,477.557-1406.689,477.557z"/>
</g>
</svg>
