<?xml version="1.0" encoding="iso-8859-1"?>
<!-- Generator: Adobe Illustrator 20.1.0, SVG Export Plug-In . SVG Version: 6.00 Build 0)  -->
<svg version="1.1" id="Layer_1" xmlns="http://www.w3.org/2000/svg" xmlns:xlink="http://www.w3.org/1999/xlink" x="0px" y="0px"
	 viewBox="0 0 284.481 283.387" style="enable-background:new 0 0 284.481 283.387;" xml:space="preserve">
<g>
	<path style="fill:#545454;" d="M142.77,283.387c-31.943-0.34-60.758-9.85-86.203-29.216
		c-13.306-10.126-24.362-22.354-33.356-36.446c-2.679-4.197-1.566-9.477,2.519-12.118c4.075-2.634,9.361-1.492,12.069,2.712
		c5.634,8.75,12.151,16.769,19.746,23.885c16.906,15.839,36.69,26.195,59.35,31.066c4.138,0.889,8.314,1.648,12.503,2.048
		c6.958,0.665,13.953,0.813,20.957,0.396c13.793-0.821,27.053-3.878,39.813-9.143c12.864-5.308,24.495-12.594,34.924-21.807
		c12.289-10.857,22.047-23.652,29.325-38.335c5.647-11.393,9.4-23.399,11.321-35.961c1.314-8.589,1.783-17.241,1.221-25.917
		c-1.85-28.536-12.099-53.667-31.047-75.095c-18.276-20.667-41.06-33.766-68.041-39.521c-3.972-0.847-8.002-1.357-12.051-1.788
		c-6.319-0.673-12.644-0.935-18.973-0.612c-15.288,0.781-29.992,4.161-44.021,10.344c-15.113,6.661-28.398,15.946-39.847,27.85
		c-1.191,1.239-2.35,2.511-3.479,3.807c-3.285,3.77-8.76,4.122-12.543,0.783c-3.464-3.057-3.756-8.65-0.57-12.209
		C57.634,24.371,83.823,9.19,115.059,2.798c6.219-1.273,12.492-2.102,18.851-2.415c3.868-0.191,7.731-0.485,11.601-0.348
		c4.696,0.166,9.372,0.561,14.053,1.057c12.487,1.322,24.474,4.509,36.091,9.165c14.866,5.958,28.305,14.263,40.358,24.808
		c14.42,12.616,25.853,27.529,34.268,44.736c6.236,12.752,10.472,26.148,12.564,40.198c0.827,5.556,1.29,11.139,1.516,16.768
		c0.236,5.887,0.134,11.742-0.393,17.583c-1.122,12.451-3.798,24.573-8.165,36.305c-6.104,16.397-14.888,31.198-26.464,44.32
		c-17.807,20.185-39.57,34.281-65.293,42.231c-8.376,2.589-16.934,4.296-25.649,5.268
		C153.191,283.053,147.97,283.243,142.77,283.387z"/>
	<path style="fill:#545454;" d="M33.175,133.951c0-6.599-0.023-13.198,0.008-19.796c0.025-5.28,3.827-9.512,9.109-10.226
		c4.866-0.658,9.721,2.53,11.172,7.341c0.278,0.922,0.431,1.861,0.431,2.831c-0.005,12.837-0.13,25.677,0.065,38.511
		c0.07,4.587,1.852,8.831,4.814,12.404c6.025,7.267,13.782,10.211,22.982,8.05c9.348-2.196,14.982-8.404,17.163-17.733
		c0.375-1.602,0.376-3.249,0.375-4.891c-0.006-11.878-0.007-23.755-0.001-35.633c0.002-3.707,1.314-6.823,4.406-8.983
		c3.361-2.348,7.002-2.655,10.662-0.82c3.66,1.835,5.696,4.938,5.721,9.033c0.08,12.717,0.128,25.436,0.002,38.152
		c-0.197,19.854-15.333,37.731-34.853,41.48c-4.474,0.859-8.986,1.187-13.454,0.623c-10.538-1.331-19.618-5.772-26.913-13.603
		c-6.436-6.908-10.254-15.051-11.416-24.438c-0.419-3.39-0.236-6.788-0.266-10.182C33.148,142.03,33.175,137.99,33.175,133.951z"/>
	<path style="fill:#545454;" d="M132.382,129.568c0-18.114-0.007-36.229,0.005-54.343c0.003-4.824,2.842-8.776,7.259-10.207
		c6.547-2.122,13.39,2.749,13.564,9.661c0.023,0.919,0.007,1.839,0.007,2.759c0,35.269-0.03,70.538,0.036,105.807
		c0.009,4.785-2.45,10.312-9.647,11.296c-3.413,0.467-8.581-1.559-10.527-6.76c-0.539-1.441-0.704-2.937-0.703-4.469
		C132.384,165.397,132.381,147.482,132.382,129.568z"/>
	<path style="fill:#545454;" d="M203.915,104.075c4.842-0.522,10.935,3.756,12.048,10.022c1.112,6.262-1.535,11.819-7.595,14.296
		c-3.094,1.264-6.449,1.481-9.637,2.369c-6.481,1.806-11.617,5.455-13.999,11.854c-3.15,8.46-0.654,17.012,7.953,22.511
		c3.278,2.094,6.989,2.853,10.725,3.567c1.685,0.322,3.341,0.744,4.961,1.345c5.163,1.914,7.715,7.416,7.856,11.438
		c0.207,5.911-4.511,12.037-11.13,12.941c-5.621,0.768-11.808-3.018-13.725-8.233c-0.984-2.677-1.399-5.487-2.089-8.232
		c-1.637-6.514-6.768-14.08-16.936-15.307c-1.54-0.186-3.077-0.497-4.577-0.895c-6.32-1.673-10.105-6.682-9.963-13.091
		c0.129-5.788,4.391-10.754,10.457-12.112c2.023-0.453,4.082-0.744,6.111-1.175c7.705-1.636,12.227-6.684,14.596-13.892
		c0.757-2.304,1.116-4.736,1.727-7.091c1.384-5.333,4.688-8.78,10.086-10.142C201.696,104.019,202.614,104.18,203.915,104.075z"/>
	<path style="fill:#545454;" d="M28.439,181.703c0.526,5.631-4.293,12.823-12.681,12.814c-7.803-0.008-12.785-6.28-12.763-12.844
		c0.024-7.028,5.719-12.73,12.739-12.753C23.763,168.894,29.036,175.99,28.439,181.703z"/>
</g>
</svg>
